g Furniture_LivingRoomRoof_Study
v 5.005568 2.792354 1.195821
v -3.931658 2.792354 1.195821
v -3.931658 2.764947 1.195821
v 5.005568 2.764947 1.195821
v 5.005568 2.792354 1.456172
v -3.931658 2.764946 1.456172
v -3.931658 2.792354 1.456172
v 5.005568 2.764946 1.456172
v 5.005568 2.764946 1.456172
v -3.931658 2.764947 1.195821
v -3.931658 2.764946 1.456172
v 5.005568 2.764947 1.195821
v 5.005568 2.792355 0.07400497
v -3.931658 2.792355 0.07400497
v -3.931658 2.764947 0.07400496
v 5.005568 2.764947 0.07400496
v 5.005568 2.792355 0.3343556
v -3.931658 2.764946 0.3343556
v -3.931658 2.792355 0.3343556
v 5.005568 2.764946 0.3343556
v 5.005568 2.764946 0.3343556
v -3.931658 2.764947 0.07400496
v -3.931658 2.764946 0.3343556
v 5.005568 2.764947 0.07400496
v 5.005568 2.792355 -1.047811
v -3.931658 2.792355 -1.047811
v -3.931658 2.764947 -1.047811
v 5.005568 2.764947 -1.047811
v 5.005568 2.792355 -0.7874604
v -3.931658 2.764947 -0.7874604
v -3.931658 2.792355 -0.7874604
v 5.005568 2.764947 -0.7874604
v 5.005568 2.764947 -0.7874604
v -3.931658 2.764947 -1.047811
v -3.931658 2.764947 -0.7874604
v 5.005568 2.764947 -1.047811
v 5.005568 2.792355 -3.291444
v -3.931658 2.792355 -3.291444
v -3.931658 2.764947 -3.291444
v 5.005568 2.764947 -3.291444
v 5.005568 2.792355 -3.031093
v -3.931658 2.764947 -3.031093
v -3.931658 2.792355 -3.031093
v 5.005568 2.764947 -3.031093
v 5.005568 2.764947 -3.031093
v -3.931658 2.764947 -3.291444
v -3.931658 2.764947 -3.031093
v 5.005568 2.764947 -3.291444
v 5.005568 2.792355 -2.169627
v -3.931658 2.792355 -2.169627
v -3.931658 2.764947 -2.169627
v 5.005568 2.764947 -2.169627
v 5.005568 2.792355 -1.909276
v -3.931658 2.764947 -1.909276
v -3.931658 2.792355 -1.909276
v 5.005568 2.764947 -1.909276
v 5.005568 2.764947 -1.909276
v -3.931658 2.764947 -2.169627
v -3.931658 2.764947 -1.909276
v 5.005568 2.764947 -2.169627
v 5.005568 2.792354 2.317637
v -3.931658 2.792354 2.317637
v -3.931658 2.764946 2.317637
v 5.005568 2.764946 2.317637
v 5.005568 2.792354 2.577988
v -3.931658 2.764946 2.577988
v -3.931658 2.792354 2.577988
v 5.005568 2.764946 2.577988
v 5.005568 2.764946 2.577988
v -3.931658 2.764946 2.317637
v -3.931658 2.764946 2.577988
v 5.005568 2.764946 2.317637
v -3.945295 2.79164 3.569628
v 5.001775 2.79164 3.569628
v -3.945296 2.791644 -4.138079
v 5.002152 2.791644 -4.138079
vt 0.005375206 0.08925082
vt 0.9967821 0.08925082
vt 0.9967821 0.02473937
vt 0.005375206 0.02473937
vt 0.9967821 0.08925082
vt 0.005375206 0.02473937
vt 0.005375206 0.08925082
vt 0.9967821 0.02473937
vt 0.9967821 0.08562619
vt 0.005375206 0.028364
vt 0.005375206 0.08562619
vt 0.9967821 0.028364
vt 0.005375206 0.08925082
vt 0.9967821 0.08925082
vt 0.9967821 0.02473937
vt 0.005375206 0.02473937
vt 0.9967821 0.08925082
vt 0.005375206 0.02473937
vt 0.005375206 0.08925082
vt 0.9967821 0.02473937
vt 0.9967821 0.08562619
vt 0.005375206 0.028364
vt 0.005375206 0.08562619
vt 0.9967821 0.028364
vt 0.005375206 0.08925082
vt 0.9967821 0.08925082
vt 0.9967821 0.02473937
vt 0.005375206 0.02473937
vt 0.9967821 0.08925082
vt 0.005375206 0.02473937
vt 0.005375206 0.08925082
vt 0.9967821 0.02473937
vt 0.9967821 0.08562619
vt 0.005375206 0.028364
vt 0.005375206 0.08562619
vt 0.9967821 0.028364
vt 0.005375206 0.08925082
vt 0.9967821 0.08925082
vt 0.9967821 0.02473937
vt 0.005375206 0.02473937
vt 0.9967821 0.08925082
vt 0.005375206 0.02473937
vt 0.005375206 0.08925082
vt 0.9967821 0.02473937
vt 0.9967821 0.08562619
vt 0.005375206 0.028364
vt 0.005375206 0.08562619
vt 0.9967821 0.028364
vt 0.005375206 0.08925082
vt 0.9967821 0.08925082
vt 0.9967821 0.02473937
vt 0.005375206 0.02473937
vt 0.9967821 0.08925082
vt 0.005375206 0.02473937
vt 0.005375206 0.08925082
vt 0.9967821 0.02473937
vt 0.9967821 0.08562619
vt 0.005375206 0.028364
vt 0.005375206 0.08562619
vt 0.9967821 0.028364
vt 0.005375206 0.08925082
vt 0.9967821 0.08925082
vt 0.9967821 0.02473937
vt 0.005375206 0.02473937
vt 0.9967821 0.08925082
vt 0.005375206 0.02473937
vt 0.005375206 0.08925082
vt 0.9967821 0.02473937
vt 0.9967821 0.08562619
vt 0.005375206 0.028364
vt 0.005375206 0.08562619
vt 0.9967821 0.028364
vt 0.9970946 0.1248706
vt 0.007050495 0.1248713
vt 0.9970946 0.9950178
vt 0.007050495 0.9950188
vn 0 0 -1
vn 0 0 -1
vn 0 0 -1
vn 0 0 -1
vn 0 0 1
vn 0 0 1
vn 0 0 1
vn 0 0 1
vn 0 -1 0
vn 0 -1 0
vn 0 -1 0
vn 0 -1 0
vn 0 0 -1
vn 0 0 -1
vn 0 0 -1
vn 0 0 -1
vn 0 0 1
vn 0 0 1
vn 0 0 1
vn 0 0 1
vn 0 -1 0
vn 0 -1 0
vn 0 -1 0
vn 0 -1 0
vn 0 0 -1
vn 0 0 -1
vn 0 0 -1
vn 0 0 -1
vn 0 0 1
vn 0 0 1
vn 0 0 1
vn 0 0 1
vn 0 -1 0
vn 0 -1 0
vn 0 -1 0
vn 0 -1 0
vn 0 0 -1
vn 0 0 -1
vn 0 0 -1
vn 0 0 -1
vn 0 0 1
vn 0 0 1
vn 0 0 1
vn 0 0 1
vn 0 -1 0
vn 0 -1 0
vn 0 -1 0
vn 0 -1 0
vn 0 0 -1
vn 0 0 -1
vn 0 0 -1
vn 0 0 -1
vn 0 0 1
vn 0 0 1
vn 0 0 1
vn 0 0 1
vn 0 -1 0
vn 0 -1 0
vn 0 -1 0
vn 0 -1 0
vn 0 0 -1
vn 0 0 -1
vn 0 0 -1
vn 0 0 -1
vn 0 0 1
vn 0 0 1
vn 0 0 1
vn 0 0 1
vn 0 -1 0
vn 0 -1 0
vn 0 -1 0
vn 0 -1 0
vn 0 -1 0
vn 0 -1 0
vn 0 -1 0
vn 0 -1 0
g Furniture_LivingRoomRoof_Study_0
f 3/3/3 2/2/2 1/1/1
f 1/1/1 4/4/4 3/3/3
f 7/7/7 6/6/6 5/5/5
f 6/6/6 8/8/8 5/5/5
f 11/11/11 10/10/10 9/9/9
f 10/10/10 12/12/12 9/9/9
f 15/15/15 14/14/14 13/13/13
f 13/13/13 16/16/16 15/15/15
f 19/19/19 18/18/18 17/17/17
f 18/18/18 20/20/20 17/17/17
f 23/23/23 22/22/22 21/21/21
f 22/22/22 24/24/24 21/21/21
f 27/27/27 26/26/26 25/25/25
f 25/25/25 28/28/28 27/27/27
f 31/31/31 30/30/30 29/29/29
f 30/30/30 32/32/32 29/29/29
f 35/35/35 34/34/34 33/33/33
f 34/34/34 36/36/36 33/33/33
f 39/39/39 38/38/38 37/37/37
f 37/37/37 40/40/40 39/39/39
f 43/43/43 42/42/42 41/41/41
f 42/42/42 44/44/44 41/41/41
f 47/47/47 46/46/46 45/45/45
f 46/46/46 48/48/48 45/45/45
f 51/51/51 50/50/50 49/49/49
f 49/49/49 52/52/52 51/51/51
f 55/55/55 54/54/54 53/53/53
f 54/54/54 56/56/56 53/53/53
f 59/59/59 58/58/58 57/57/57
f 58/58/58 60/60/60 57/57/57
f 63/63/63 62/62/62 61/61/61
f 61/61/61 64/64/64 63/63/63
f 67/67/67 66/66/66 65/65/65
f 66/66/66 68/68/68 65/65/65
f 71/71/71 70/70/70 69/69/69
f 70/70/70 72/72/72 69/69/69
f 75/75/75 74/74/74 73/73/73
f 75/75/75 76/76/76 74/74/74
