g Kitchen_Wall03
v -3.936261 2.118769 -0.5110347
v -3.936261 2.118769 3.498245
v -3.936261 2.438607 3.498245
v -3.936261 2.438607 -0.5110347
v -3.936261 2.802821 3.498245
v -3.936261 2.802819 -0.5110347
v -3.936261 2.438607 -2.874102
v -3.936261 2.80282 -2.874102
v -3.936261 2.438607 -2.874102
v -3.936262 2.11877 -4.103921
v -3.936261 2.118769 -2.874103
v -3.936262 2.438608 -4.10392
v -3.936261 2.80282 -2.874102
v -3.936261 2.80282 -4.10392
v -3.936262 2.438608 -4.10392
v -1.411009 2.11877 -4.103923
v -3.936262 2.11877 -4.103921
v -1.411009 2.438608 -4.103923
v -3.936261 2.80282 -4.10392
v -1.411009 2.80282 -4.103923
vt 0.7353363 0.1580319
vt -3.273944 0.1580327
vt -3.273944 0.4778705
vt 0.7353363 0.47787
vt -3.273944 0.8420839
vt 0.7353363 0.8420825
vt 3.098404 0.4778705
vt 3.098404 0.8420835
vt 0.5191297 0.3258849
vt 0.6830077 0.2833364
vt 0.5191297 0.2833364
vt 0.6830077 0.3258849
vt 0.5191297 0.3743365
vt 0.6830077 0.3743365
vt 0.5465571 0.3256968
vt 0.882427 0.2831483
vt 0.5465571 0.2831483
vt 0.8824881 0.3256968
vt 0.5465571 0.3741485
vt 0.8825588 0.3741485
vn 1 0 0
vn 1 0 0
vn 1 0 0
vn 1 0 0
vn 1 0 0
vn 1 0 0
vn 1 0 0
vn 1 0 0
vn 1 0 0
vn 1 0 0
vn 1 0 0
vn 1 0 0
vn 1 0 0
vn 1 0 0
vn 0 0 1
vn 0 0 1
vn 0 0 1
vn 0 0 1
vn 0 0 1
vn 0 0 1
g Kitchen_Wall03_0
f 3/3/3 2/2/2 1/1/1
f 4/4/4 3/3/3 1/1/1
f 3/3/3 4/4/4 5/5/5
f 4/4/4 6/6/6 5/5/5
f 6/6/6 4/4/4 7/7/7
f 8/8/8 6/6/6 7/7/7
f 11/11/11 10/10/10 9/9/9
f 10/10/10 12/12/12 9/9/9
f 13/13/13 9/9/9 12/12/12
f 14/14/14 13/13/13 12/12/12
f 17/17/17 16/16/16 15/15/15
f 16/16/16 18/18/18 15/15/15
f 15/15/15 18/18/18 19/19/19
f 18/18/18 20/20/20 19/19/19
