g LivingRoom_Wall02
v 4.999279 1.744853 -4.103922
v 4.999279 0.1972638 -4.103923
v 4.350631 0.1972631 -4.103923
v 4.350631 1.744852 -4.103923
v 1.183701 2.05066 -4.103923
v 4.350631 2.050663 -4.103922
v 1.183701 0.1972597 -4.103923
v 4.999279 1.744852 -3.486931
v 4.999279 0.1972636 -3.486932
v 4.999279 0.1972638 -4.103923
v 4.999279 1.744853 -4.103922
v 4.999279 2.050663 1.361748
v 4.999279 2.050663 3.552518
v 4.999279 0.1972642 3.552519
v 4.999279 0.1972635 1.361746
v 4.999279 2.050663 -0.8148921
v 4.999279 0.1972635 -0.8148935
v 4.999279 0.1972637 -1.570143
v 4.999279 2.050663 -1.570142
v 4.999279 2.050663 -1.570142
v 5.27295 2.05066 -1.570142
v 5.27295 2.050659 -3.486931
v 4.999279 2.050663 -3.48693
v 4.999279 2.050663 -3.48693
v 5.27295 2.050659 -3.486931
v 5.27295 0.1972592 -3.486932
v 4.999279 0.1972636 -3.486932
v 4.999279 1.744852 -3.486931
v 4.999279 2.050663 -1.570142
v 4.999279 0.1972637 -1.570143
v 5.27295 0.1972595 -1.570142
v 5.27295 2.05066 -1.570142
v 4.999279 0.1972637 -1.570143
v 4.999279 0.1972636 -3.486932
v 5.27295 0.1972592 -3.486932
v 5.27295 0.1972595 -1.570142
v 4.999279 2.050663 -4.103922
v 4.999279 1.744853 -4.103922
v 4.350631 1.744852 -4.103923
v 4.350631 2.050663 -4.103922
v 4.999279 2.050663 -3.48693
v 4.999279 1.744852 -3.486931
v 4.999279 1.744853 -4.103922
v 4.999279 2.050663 -4.103922
vt 4.888676 1.025549
vt 4.888676 -0.52204
vt 4.240027 -0.5220407
vt 4.240027 1.025548
vt 1.073097 1.331356
vt 4.240027 1.331359
vt 1.073097 -0.5220441
vt -2.6178 1.025549
vt -2.617802 -0.5220401
vt -3.234794 -0.52204
vt -3.234793 1.025549
vt 2.230878 1.331359
vt 4.421648 1.33136
vt 4.421649 -0.5220395
vt 2.230876 -0.5220404
vt 0.05423784 1.33136
vt 0.05423641 -0.5220402
vt -0.7010124 -0.5220401
vt -0.7010114 1.33136
vt -3.888675 1.701011
vt -4.162346 1.701011
vt -4.162347 3.617801
vt -3.888676 3.6178
vt 4.888676 1.33136
vt 5.162347 1.331355
vt 5.162347 -0.5220447
vt 4.888676 -0.5220401
vt 4.888676 1.025549
vt -3.888675 1.33136
vt -3.888675 -0.5220401
vt -4.162346 -0.5220443
vt -4.162346 1.331356
vt 4.888675 1.701012
vt 4.888676 3.617802
vt 5.162347 3.617802
vt 5.162346 1.701012
vt 4.888676 1.33136
vt 4.888676 1.025549
vt 4.240027 1.025548
vt 4.240027 1.331359
vt -2.6178 1.33136
vt -2.6178 1.025549
vt -3.234793 1.025549
vt -3.234793 1.33136
vn 0 0 1
vn 0 0 1
vn 0 0 1
vn 0 0 1
vn 0 0 1
vn 0 0 1
vn 0 0 1
vn -1 0 0
vn -1 0 0
vn -1 0 0
vn -1 0 0
vn -1 0 0
vn -1 0 0
vn -1 0 0
vn -1 0 0
vn -1 0 0
vn -1 0 0
vn -1 0 0
vn -1 0 0
vn -1.393898E-05 -1 0
vn -1.393898E-05 -1 0
vn -1.393898E-05 -1 0
vn -1.393898E-05 -1 0
vn 0 0 1
vn 0 0 1
vn 0 0 1
vn 0 0 1
vn 0 0 1
vn 0 0 -1
vn 0 0 -1
vn 0 0 -1
vn 0 0 -1
vn 1.58447E-05 1 0
vn 1.58447E-05 1 0
vn 1.58447E-05 1 0
vn 1.58447E-05 1 0
vn 0 0 1
vn 0 0 1
vn 0 0 1
vn 0 0 1
vn -1 0 0
vn -1 0 0
vn -1 0 0
vn -1 0 0
g LivingRoom_Wall02_0
f 3/3/3 2/2/2 1/1/1
f 4/4/4 3/3/3 1/1/1
f 5/5/5 3/3/3 4/4/4
f 4/4/4 6/6/6 5/5/5
f 5/5/5 7/7/7 3/3/3
f 10/10/10 9/9/9 8/8/8
f 11/11/11 10/10/10 8/8/8
f 14/14/14 13/13/13 12/12/12
f 15/15/15 14/14/14 12/12/12
f 18/18/18 17/17/17 16/16/16
f 19/19/19 18/18/18 16/16/16
f 22/22/22 21/21/21 20/20/20
f 23/23/23 22/22/22 20/20/20
f 26/26/26 25/25/25 24/24/24
f 24/24/24 27/27/27 26/26/26
f 24/24/24 28/28/28 27/27/27
f 31/31/31 30/30/30 29/29/29
f 32/32/32 31/31/31 29/29/29
f 35/35/35 34/34/34 33/33/33
f 36/36/36 35/35/35 33/33/33
f 39/39/39 38/38/38 37/37/37
f 40/40/40 39/39/39 37/37/37
f 43/43/43 42/42/42 41/41/41
f 44/44/44 43/43/43 41/41/41
