g Outside_HighLeaf
v 1.687621 7.091446 2.88544
v 1.393019 7.13265 3.022103
v 1.672567 7.991893 3.517994
v 1.672567 7.991893 3.517994
v 1.896019 7.563096 3.137503
v 1.687621 7.091446 2.88544
v 1.393019 7.13265 3.022103
v 0.5018021 7.640679 3.044702
v 1.672567 7.991893 3.517994
v 0.950079 6.708013 2.051999
v 0.5018021 7.640679 3.044702
v 1.393019 7.13265 3.022103
v -3.375086 7.963423 2.353115
v -3.270747 7.868695 1.961082
v -3.561699 7.679731 1.919413
v -3.375086 7.963423 2.353115
v -3.561699 7.679731 1.919413
v -3.697158 7.874376 2.232291
v -3.362697 7.936678 2.258017
v -3.517212 7.998894 2.572232
v -3.2557 8.063255 2.752199
v -3.362697 7.936678 2.258017
v -3.2557 8.063255 2.752199
v -3.134224 8.100082 2.410947
v -3.357117 7.951999 2.29776
v -3.652085 7.915781 2.281569
v -3.669201 7.992115 2.674943
v -3.357117 7.951999 2.29776
v -3.669201 7.992115 2.674943
v -3.403766 8.124325 2.638361
v -3.389531 8.216164 2.630402
v -3.607188 8.221226 2.463403
v -3.736385 8.263227 2.761956
v -3.389531 8.216164 2.630402
v -3.736385 8.263227 2.761956
v -3.51925 8.345062 2.889739
v -3.357886 8.207563 2.665699
v -3.510817 8.327098 2.98543
v -3.284542 8.334724 3.222827
v -3.357886 8.207563 2.665699
v -3.284542 8.334724 3.222827
v -3.135859 8.308483 2.871396
v -3.514155 8.062988 2.319119
v -3.179155 7.959879 2.210704
v -3.312796 7.736198 1.861455
v -3.514155 8.062988 2.319119
v -3.312796 7.736198 1.861455
v -3.615559 7.941688 1.882758
v -3.701846 8.182058 2.381824
v -4.025538 8.29891 2.228177
v -4.14838 8.288977 2.68254
v -3.701846 8.182058 2.381824
v -4.14838 8.288977 2.68254
v -3.807732 8.298122 2.823955
v -3.582913 8.018614 2.210763
v -3.784416 8.093527 1.967206
v -3.9845 8.08072 2.253426
v -3.582913 8.018614 2.210763
v -3.9845 8.08072 2.253426
v -3.771997 8.108185 2.491684
v -3.831202 8.014925 2.013387
v -4.117466 7.99838 1.895844
v -4.20611 7.986862 2.283828
v -3.831202 8.014925 2.013387
v -4.20611 7.986862 2.283828
v -3.94404 8.107245 2.37887
v -3.755691 8.004847 1.930956
v -3.755595 7.93957 1.496759
v -4.109373 7.928255 1.519233
v -3.755691 8.004847 1.930956
v -4.109373 7.928255 1.519233
v -4.097928 8.101749 1.901691
v -3.587559 8.080683 2.201289
v -3.254799 7.899101 2.000744
v -3.465664 7.758018 1.581982
v -3.587559 8.080683 2.201289
v -3.465664 7.758018 1.581982
v -3.761879 8.054317 1.711175
v -3.571704 8.006182 2.234292
v -3.475962 7.853148 1.830189
v -3.830016 7.756199 1.770467
v -3.571704 8.006182 2.234292
v -3.830016 7.756199 1.770467
v -3.924146 8.015553 2.083217
v -2.758786 8.425784 2.652653
v -2.993824 8.55896 2.85058
v -2.816257 8.765805 3.1411
v -2.758786 8.425784 2.652653
v -2.816257 8.765805 3.1411
v -2.606992 8.714731 2.867659
v -3.210905 8.213539 2.479775
v -3.189015 8.313961 2.77584
v -2.940025 8.176756 2.812338
v -3.210905 8.213539 2.479775
v -2.940025 8.176756 2.812338
v -2.923313 8.16186 2.467675
v -3.132513 8.25703 2.641919
v -3.209009 8.356485 2.921579
v -2.94784 8.304167 3.051041
v -3.132513 8.25703 2.641919
v -2.94784 8.304167 3.051041
v -2.853296 8.292707 2.726402
v -3.24712 8.191608 2.281585
v -3.364415 8.238697 2.56561
v -3.179192 8.080691 2.716935
v -3.24712 8.191608 2.281585
v -3.179192 8.080691 2.716935
v -3.031975 8.116296 2.456292
v -3.369229 8.091059 2.354662
v -3.096927 8.083227 2.059391
v -3.228006 7.830004 1.825832
v -3.369229 8.091059 2.354662
v -3.228006 7.830004 1.825832
v -3.534761 7.905569 1.917428
v 1.084647 7.463122 2.20396
v 0.2287643 7.075378 1.945726
v -0.04652935 7.659819 2.557204
v 1.084647 7.463122 2.20396
v -0.04652935 7.659819 2.557204
v 1.086698 7.928675 3.122735
v -0.1440898 6.810118 1.609358
v -0.5494681 7.404695 2.381572
v 0.2609618 8.028969 2.70318
v 0.7723708 7.153054 2.196817
v 0.6011906 7.72231 1.072015
v -0.1724279 7.812322 1.473867
v 0.1471965 7.75527 2.67301
v 1.045049 7.629562 2.12008
v 0.6284323 6.676591 2.179176
v -0.2035881 7.064404 2.646118
v -0.0225687 7.837186 3.255599
v 1.108803 7.417528 2.835679
v 2.655725 7.111376 2.437852
v 1.543979 7.245021 2.78117
v 1.786759 7.538523 3.876841
v 2.792403 6.983576 3.427567
v -0.6559156 8.135852 3.303972
v 0.3348883 7.664419 2.848957
v -0.01189768 6.68733 2.198239
v -1.105924 7.31527 2.693367
v -0.2003912 8.217136 3.674227
v 0.7375437 8.908325 3.512501
v 1.033326 7.871871 3.117817
v -0.05359161 7.626344 2.642595
v 1.49518 6.847871 2.32121
v 0.950079 6.708013 2.051999
v 1.393019 7.13265 3.022103
v 1.687621 7.091446 2.88544
v -6.609256 9.301017 1.245818
v -6.540315 9.586561 1.353174
v -6.213993 9.550189 1.488948
v -6.282935 9.264646 1.381591
v -6.556038 9.191693 0.9532587
v -6.35997 9.362623 1.518815
v -5.90423 9.036862 1.531872
v -6.100298 8.865933 0.9663175
v -6.156866 9.066 1.456598
v -5.86796 9.227375 1.66459
v -5.661579 9.152881 1.195147
v -5.950484 8.991506 0.9871532
v -5.969924 8.916932 1.393845
v -5.992392 9.232382 1.759093
v -5.57021 9.221201 1.803972
v -5.547741 8.90575 1.438725
v -6.467263 9.315411 1.468896
v -6.23702 9.517146 1.89582
v -5.925488 9.25983 1.806322
v -6.155732 9.058094 1.379398
v -0.04663664 6.91026 2.412602
v -0.336164 7.872589 3.431025
v 0.6623394 8.608186 3.40174
v 1.069926 7.455416 2.774669
v -0.0863713 6.81012 2.00796
v -0.6373707 8.130261 2.997972
v 0.3363985 8.666167 3.166568
v 1.090586 7.454264 2.695647
vt 0.839909 0.828992
vt 0.754899 0.874855
vt 0.981268 0.996984
vt 0.981268 0.996984
vt 0.974467 0.885726
vt 0.839909 0.828992
vt 0.754899 0.874855
vt 0.528529 0.996984
vt 0.981268 0.996984
vt 0.52853 0.752771
vt 0.528529 0.996984
vt 0.754899 0.874855
vt 0.258128 0.752712
vt 0.502846 0.752712
vt 0.502846 0.991863
vt 0.258128 0.752712
vt 0.502846 0.991863
vt 0.258128 0.991863
vt 0.258128 0.507927
vt 0.502846 0.507927
vt 0.502846 0.748008
vt 0.258128 0.507927
vt 0.502846 0.748008
vt 0.258128 0.748008
vt 0.258128 0.507927
vt 0.502846 0.507927
vt 0.502846 0.748008
vt 0.258128 0.507927
vt 0.502846 0.748008
vt 0.258128 0.748008
vt 0.258128 0.507927
vt 0.502846 0.507927
vt 0.502846 0.748008
vt 0.258128 0.507927
vt 0.502846 0.748008
vt 0.258128 0.748008
vt 0.258128 0.507927
vt 0.502846 0.507927
vt 0.502846 0.748008
vt 0.258128 0.507927
vt 0.502846 0.748008
vt 0.258128 0.748008
vt 0.258128 0.752712
vt 0.502846 0.752712
vt 0.502846 0.991863
vt 0.258128 0.752712
vt 0.502846 0.991863
vt 0.258128 0.991863
vt 0.258128 0.507927
vt 0.502846 0.507927
vt 0.502846 0.748008
vt 0.258128 0.507927
vt 0.502846 0.748008
vt 0.258128 0.748008
vt 0.258128 0.752712
vt 0.502846 0.752712
vt 0.502846 0.991863
vt 0.258128 0.752712
vt 0.502846 0.991863
vt 0.258128 0.991863
vt 0.258128 0.752712
vt 0.502846 0.752712
vt 0.502846 0.991863
vt 0.258128 0.752712
vt 0.502846 0.991863
vt 0.258128 0.991863
vt 0.258128 0.752712
vt 0.502846 0.752712
vt 0.502846 0.991863
vt 0.258128 0.752712
vt 0.502846 0.991863
vt 0.258128 0.991863
vt 0.258128 0.752712
vt 0.502846 0.752712
vt 0.502846 0.991863
vt 0.258128 0.752712
vt 0.502846 0.991863
vt 0.258128 0.991863
vt 0.258128 0.752712
vt 0.502846 0.752712
vt 0.502846 0.991863
vt 0.258128 0.752712
vt 0.502846 0.991863
vt 0.258128 0.991863
vt 0.258128 0.507927
vt 0.502846 0.507927
vt 0.502846 0.748008
vt 0.258128 0.507927
vt 0.502846 0.748008
vt 0.258128 0.748008
vt 0.258128 0.507927
vt 0.502846 0.507927
vt 0.502846 0.748008
vt 0.258128 0.507927
vt 0.502846 0.748008
vt 0.258128 0.748008
vt 0.258128 0.507927
vt 0.502846 0.507927
vt 0.502846 0.748008
vt 0.258128 0.507927
vt 0.502846 0.748008
vt 0.258128 0.748008
vt 0.258128 0.507927
vt 0.502846 0.507927
vt 0.502846 0.748008
vt 0.258128 0.507927
vt 0.502846 0.748008
vt 0.258128 0.748008
vt 0.258128 0.752712
vt 0.502846 0.752712
vt 0.502846 0.991863
vt 0.258128 0.752712
vt 0.502846 0.991863
vt 0.258128 0.991863
vt 0.981268 0.507151
vt 0.981268 0.751409
vt 0.52853 0.751409
vt 0.981268 0.507151
vt 0.52853 0.751409
vt 0.52853 0.507151
vt 0.52853 0.507151
vt 0.52853 0.751409
vt 0.981268 0.751409
vt 0.981268 0.507151
vt 0.981268 0.751409
vt 0.52853 0.751409
vt 0.52853 0.507151
vt 0.981268 0.507151
vt 0.52853 0.753184
vt 0.52853 0.997442
vt 0.981268 0.997442
vt 0.981268 0.753184
vt 0.981268 0.997442
vt 0.981268 0.753184
vt 0.52853 0.753184
vt 0.52853 0.997442
vt 0.981268 0.997442
vt 0.981268 0.753184
vt 0.52853 0.753184
vt 0.52853 0.997442
vt 0.528529 0.997397
vt 0.981268 0.997397
vt 0.981269 0.753139
vt 0.52853 0.753139
vt 0.72279 0.752771
vt 0.52853 0.752771
vt 0.754899 0.874855
vt 0.839909 0.828992
vt 0.254189 0.504325
vt 0.006637 0.504325
vt 0.006637 0.748008
vt 0.254189 0.748008
vt 0.006637 0.504325
vt 0.006637 0.748008
vt 0.254189 0.748008
vt 0.254189 0.504325
vt 0.006637 0.504325
vt 0.006637 0.748008
vt 0.254189 0.748008
vt 0.254189 0.504325
vt 0.254189 0.752712
vt 0.006637 0.752712
vt 0.006637 0.991747
vt 0.254189 0.991747
vt 0.254189 0.752712
vt 0.006637 0.752712
vt 0.006637 0.991747
vt 0.254189 0.991747
vt 0.52853 0.753184
vt 0.52853 0.997442
vt 0.981268 0.997442
vt 0.981268 0.753184
vt 0.52853 0.507151
vt 0.528529 0.751365
vt 0.981268 0.751365
vt 0.981269 0.507151
vn 0.2880134 -0.5472425 0.7858587
vn 0.2880134 -0.5472425 0.7858587
vn 0.2880134 -0.5472425 0.7858587
vn 0.2880117 -0.5472429 0.7858591
vn 0.2880117 -0.5472429 0.7858591
vn 0.2880117 -0.5472429 0.7858592
vn -0.2238272 -0.4315255 0.873892
vn -0.2238272 -0.4315255 0.873892
vn -0.2238271 -0.4315255 0.873892
vn -0.4139839 -0.7492336 0.5169782
vn -0.4139839 -0.7492336 0.5169781
vn -0.4139839 -0.7492336 0.5169781
vn 0.4819601 -0.8137304 0.3248958
vn 0.4819601 -0.8137304 0.3248958
vn 0.4819601 -0.8137304 0.3248958
vn 0.03124014 -0.8425627 0.5376915
vn 0.03124015 -0.8425627 0.5376915
vn 0.03124015 -0.8425627 0.5376915
vn 0.07958551 -0.9696617 0.2311329
vn 0.07958551 -0.9696617 0.2311329
vn 0.07958551 -0.9696617 0.2311329
vn 0.533946 -0.8396487 0.099457
vn 0.533946 -0.8396487 0.099457
vn 0.533946 -0.8396487 0.099457
vn 0.1090628 -0.974934 0.1939307
vn 0.1090628 -0.974934 0.1939308
vn 0.1090628 -0.974934 0.1939307
vn 0.4468528 -0.7721111 0.4518484
vn 0.4468528 -0.7721111 0.4518484
vn 0.4468528 -0.7721111 0.4518484
vn -0.09755557 -0.9904795 0.09712492
vn -0.09755556 -0.9904795 0.09712491
vn -0.09755556 -0.9904795 0.09712491
vn 0.05752023 -0.88224 0.4672729
vn 0.05752024 -0.88224 0.4672729
vn 0.05752024 -0.88224 0.4672729
vn -0.2251351 -0.9430516 0.2448835
vn -0.2251351 -0.9430516 0.2448835
vn -0.2251351 -0.9430516 0.2448835
vn 0.2623663 -0.9476947 0.1817657
vn 0.2623663 -0.9476947 0.1817657
vn 0.2623663 -0.9476947 0.1817657
vn -0.07394256 -0.8266996 0.5577636
vn -0.07394256 -0.8266996 0.5577636
vn -0.07394256 -0.8266996 0.5577635
vn -0.5120204 -0.7894853 0.3384494
vn -0.5120204 -0.7894853 0.3384494
vn -0.5120204 -0.7894853 0.3384494
vn -0.2315029 -0.8806854 0.4132792
vn -0.2315028 -0.8806853 0.4132791
vn -0.2315029 -0.8806854 0.4132792
vn -0.6232751 -0.7370446 0.26133
vn -0.6232751 -0.7370446 0.2613301
vn -0.6232751 -0.7370446 0.26133
vn 0.01783018 -0.8196073 0.5726482
vn 0.01783018 -0.8196073 0.5726482
vn 0.01783018 -0.8196073 0.5726482
vn 0.5254175 -0.6680773 0.5268864
vn 0.5254174 -0.6680773 0.5268864
vn 0.5254174 -0.6680773 0.5268864
vn -0.4932094 -0.8120689 0.3119115
vn -0.4932093 -0.8120688 0.3119115
vn -0.4932093 -0.8120688 0.3119115
vn -0.1753722 -0.9839143 0.0340186
vn -0.1753722 -0.9839143 0.03401861
vn -0.1753722 -0.9839143 0.03401861
vn -0.3052805 -0.9205098 0.2438556
vn -0.3052805 -0.9205098 0.2438557
vn -0.3052805 -0.9205098 0.2438557
vn 0.1067601 -0.9920845 0.06611115
vn 0.1067601 -0.9920845 0.06611115
vn 0.1067601 -0.9920845 0.06611115
vn -0.5906879 -0.7991673 -0.1114432
vn -0.5906878 -0.7991673 -0.1114432
vn -0.5906878 -0.7991673 -0.1114432
vn -0.1577913 -0.9625149 -0.2206063
vn -0.1577913 -0.9625149 -0.2206063
vn -0.1577913 -0.9625149 -0.2206063
vn 0.5071751 -0.7113395 0.4865897
vn 0.5071751 -0.7113395 0.4865897
vn 0.5071751 -0.7113395 0.4865897
vn -0.09702791 -0.9025054 0.4196067
vn -0.0970279 -0.9025053 0.4196067
vn -0.09702791 -0.9025053 0.4196067
vn -0.3956047 -0.2379917 0.8870496
vn -0.3956047 -0.2379917 0.8870496
vn -0.3956047 -0.2379917 0.8870495
vn -0.3956046 -0.2379917 0.8870496
vn -0.5383101 -0.7366925 0.4092755
vn -0.5383101 -0.7366925 0.4092755
vn -0.5383101 -0.7366925 0.4092755
vn 0.3070534 -0.9097678 0.2793575
vn -0.5383101 -0.7366925 0.4092755
vn 0.3070534 -0.9097678 0.2793575
vn 0.3070534 -0.9097678 0.2793575
vn 0.3070534 -0.9097678 0.2793575
vn -0.08891045 -0.7565157 0.6479035
vn -0.08891046 -0.7565157 0.6479035
vn -0.08891046 -0.7565157 0.6479035
vn -0.08891045 -0.7565157 0.6479034
vn -0.423762 -0.7090724 0.5635976
vn -0.423762 -0.7090724 0.5635976
vn -0.4237619 -0.7090724 0.5635976
vn 0.2102916 -0.5561889 0.8040096
vn -0.423762 -0.7090724 0.5635976
vn 0.2102916 -0.5561889 0.8040096
vn 0.2102916 -0.5561889 0.8040096
vn 0.2102916 -0.5561889 0.8040096
vn -0.0542057 -0.5198392 0.8525426
vn -0.0542057 -0.5198391 0.8525426
vn -0.0542057 -0.5198392 0.8525426
vn -0.0542057 -0.5198392 0.8525426
vn 0.1009158 -0.6961327 0.710785
vn 0.1009158 -0.6961327 0.710785
vn 0.1009158 -0.6961327 0.710785
vn 0.1009158 -0.6961327 0.710785
vn 0.1009158 -0.6961327 0.710785
vn -0.0139502 -0.8919207 0.4519765
vn -0.0139502 -0.8919207 0.4519765
vn -0.0139502 -0.8919207 0.4519765
vn -0.02184954 -0.6637123 0.7476687
vn -0.02184954 -0.6637123 0.7476687
vn -0.02184954 -0.6637123 0.7476687
vn -0.02184954 -0.6637123 0.7476687
vn -0.1385965 -0.9901683 -0.01891705
vn -0.1385965 -0.9901683 -0.01891705
vn -0.1385965 -0.9901683 -0.01891705
vn -0.1385965 -0.9901683 -0.01891705
vn 0.06853003 -0.6574857 0.7503439
vn 0.06853003 -0.6574857 0.7503439
vn 0.06853003 -0.6574857 0.750344
vn 0.06853004 -0.6574857 0.750344
vn -0.2645487 -0.9563504 0.124128
vn -0.2645487 -0.9563504 0.124128
vn -0.2645487 -0.9563504 0.1241279
vn -0.2645487 -0.9563504 0.1241279
vn 0.05598525 -0.5899733 0.8054794
vn 0.05598526 -0.5899733 0.8054794
vn 0.05598526 -0.5899733 0.8054794
vn 0.05598526 -0.5899733 0.8054794
vn 0.169997 -0.6230064 0.7635208
vn 0.169997 -0.6230064 0.7635208
vn 0.169997 -0.6230064 0.7635208
vn 0.169997 -0.6230064 0.7635208
vn 0.04813227 -0.9229075 0.3820014
vn 0.04813227 -0.9229075 0.3820014
vn 0.04813227 -0.9229075 0.3820014
vn 0.04812656 -0.922908 0.3820009
vn 0.1009158 -0.6961327 0.710785
vn -0.0139502 -0.8919207 0.4519765
vn -0.0139502 -0.8919207 0.4519765
vn -0.0139502 -0.8919207 0.4519765
vn -0.5383101 -0.7366925 0.4092755
vn -0.5383101 -0.7366925 0.4092755
vn -0.5383101 -0.7366925 0.4092755
vn -0.5383101 -0.7366925 0.4092755
vn 0.3070534 -0.9097678 0.2793575
vn 0.3070534 -0.9097678 0.2793575
vn 0.3070534 -0.9097678 0.2793575
vn 0.3070534 -0.9097678 0.2793575
vn -0.08891045 -0.7565157 0.6479035
vn -0.08891045 -0.7565157 0.6479034
vn -0.08891046 -0.7565157 0.6479035
vn -0.08891046 -0.7565157 0.6479035
vn -0.423762 -0.7090724 0.5635976
vn -0.423762 -0.7090724 0.5635976
vn -0.4237619 -0.7090724 0.5635976
vn -0.423762 -0.7090724 0.5635976
vn 0.2102916 -0.5561889 0.8040096
vn 0.2102916 -0.5561889 0.8040096
vn 0.2102916 -0.5561889 0.8040096
vn 0.2102916 -0.5561889 0.8040096
vn -0.0542057 -0.5198392 0.8525426
vn -0.0542057 -0.5198392 0.8525426
vn -0.0542057 -0.5198391 0.8525426
vn -0.0542057 -0.5198392 0.8525426
g Outside_HighLeaf_0
f 3/3/3 2/2/2 1/1/1
f 6/6/6 5/5/5 4/4/4
f 9/9/9 8/8/8 7/7/7
f 12/12/12 11/11/11 10/10/10
f 15/15/15 14/14/14 13/13/13
f 18/18/18 17/17/17 16/16/16
f 21/21/21 20/20/20 19/19/19
f 24/24/24 23/23/23 22/22/22
f 27/27/27 26/26/26 25/25/25
f 30/30/30 29/29/29 28/28/28
f 33/33/33 32/32/32 31/31/31
f 36/36/36 35/35/35 34/34/34
f 39/39/39 38/38/38 37/37/37
f 42/42/42 41/41/41 40/40/40
f 45/45/45 44/44/44 43/43/43
f 48/48/48 47/47/47 46/46/46
f 51/51/51 50/50/50 49/49/49
f 54/54/54 53/53/53 52/52/52
f 57/57/57 56/56/56 55/55/55
f 60/60/60 59/59/59 58/58/58
f 63/63/63 62/62/62 61/61/61
f 66/66/66 65/65/65 64/64/64
f 69/69/69 68/68/68 67/67/67
f 72/72/72 71/71/71 70/70/70
f 75/75/75 74/74/74 73/73/73
f 78/78/78 77/77/77 76/76/76
f 81/81/81 80/80/80 79/79/79
f 84/84/84 83/83/83 82/82/82
f 87/87/87 86/86/86 85/85/85
f 90/90/90 89/89/89 88/88/88
f 93/93/93 92/92/92 91/91/91
f 96/96/96 95/95/95 94/94/94
f 99/99/99 98/98/98 97/97/97
f 102/102/102 101/101/101 100/100/100
f 105/105/105 104/104/104 103/103/103
f 108/108/108 107/107/107 106/106/106
f 111/111/111 110/110/110 109/109/109
f 114/114/114 113/113/113 112/112/112
f 117/117/117 116/116/116 115/115/115
f 120/120/120 119/119/119 118/118/118
f 123/123/123 122/122/122 121/121/121
f 124/124/124 123/123/123 121/121/121
f 127/127/127 126/126/126 125/125/125
f 128/128/128 127/127/127 125/125/125
f 131/131/131 130/130/130 129/129/129
f 132/132/132 131/131/131 129/129/129
f 135/135/135 134/134/134 133/133/133
f 136/136/136 135/135/135 133/133/133
f 139/139/139 138/138/138 137/137/137
f 140/140/140 139/139/139 137/137/137
f 143/143/143 142/142/142 141/141/141
f 144/144/144 143/143/143 141/141/141
f 147/147/147 146/146/146 145/145/145
f 145/145/145 148/148/148 147/147/147
f 151/151/151 150/150/150 149/149/149
f 152/152/152 151/151/151 149/149/149
f 155/155/155 154/154/154 153/153/153
f 156/156/156 155/155/155 153/153/153
f 159/159/159 158/158/158 157/157/157
f 160/160/160 159/159/159 157/157/157
f 163/163/163 162/162/162 161/161/161
f 164/164/164 163/163/163 161/161/161
f 167/167/167 166/166/166 165/165/165
f 168/168/168 167/167/167 165/165/165
f 171/171/171 170/170/170 169/169/169
f 172/172/172 171/171/171 169/169/169
f 175/175/175 174/174/174 173/173/173
f 176/176/176 175/175/175 173/173/173
