g TVscreen
v 0.4486241 -0.06090038 0.1693959
v 0.4523544 -0.06090046 0.6378221
v 0.4523544 -0.06090038 0.1764759
v -0.4523548 -0.06090097 0.6378221
v -0.4495176 -0.06090097 0.64447
v -0.4523548 -0.06090087 0.1764759
v 0.4424052 -0.06090047 0.6479189
v -0.4495176 -0.06090097 0.64447
v -0.4424056 -0.06090097 0.6479189
v 0.4493561 -0.06090046 0.644857
v 0.4523544 -0.06090046 0.6378221
v 0.4486241 -0.06090038 0.1693959
v -0.4523548 -0.06090087 0.1764759
v -0.4483978 -0.06090087 0.1701816
v -0.4424056 -0.06090086 0.1663792
v 0.4424052 -0.06090038 0.1663792
vt 0.9945014 0.0104838
vt 1 0.9790324
vt 0.9999999 0.0209676
vt -1.192093E-07 0.9790324
vt 0.005498409 0.9895161
vt -1.192093E-07 0.0209676
vt 0.9890029 0.9999999
vt 0.005498409 0.9895161
vt 0.01099694 0.9999999
vt 0.9945015 0.9895161
vt 1 0.9790324
vt 0.9945014 0.0104838
vt -1.192093E-07 0.0209676
vt 0.005498409 0.0104838
vt 0.01099694 0
vt 0.9890028 0
vn 0 -1 0
vn 0 -1 0
vn 0 -1 0
vn 0 -1 0
vn 0 -1 0
vn 0 -1 0
vn 0 -1 0
vn 0 -1 0
vn 0 -1 0
vn 0 -1 0
vn 0 -1 0
vn 0 -1 0
vn 0 -1 0
vn 0 -1 0
vn 0 -1 0
vn 0 -1 0
g TVscreen_0
f 3/3/3 2/2/2 1/1/1
f 6/6/6 5/5/5 4/4/4
f 9/9/9 8/8/8 7/7/7
f 10/10/10 7/7/7 8/8/8
f 10/10/10 8/8/8 11/11/11
f 11/11/11 8/8/8 12/12/12
f 12/12/12 8/8/8 13/13/13
f 14/14/14 12/12/12 13/13/13
f 14/14/14 15/15/15 12/12/12
f 16/16/16 12/12/12 15/15/15
