g Kitchen_windows02
v -3.562073 1.474322 -4.135612
v -2.76708 1.474322 -4.135612
v -2.767081 1.474322 -4.168787
v -3.562074 1.474322 -4.168787
v -3.562074 1.511791 -4.168787
v -2.767081 1.511791 -4.168787
v -2.76708 1.511791 -4.135612
v -3.562073 1.511791 -4.135612
v -3.562073 1.511791 -4.135612
v -2.76708 1.511791 -4.135612
v -2.76708 1.474322 -4.135612
v -3.562073 1.474322 -4.135612
v -3.585051 1.474322 -4.134531
v -3.555051 1.474322 -4.134531
v -3.555051 1.474322 -4.170288
v -3.585051 1.474322 -4.170288
v -3.555051 2.031245 -4.170288
v -3.555051 1.474322 -4.170288
v -3.555051 1.474322 -4.134531
v -3.555051 2.031245 -4.134531
v -3.555051 2.031245 -4.134531
v -3.555051 1.474322 -4.134531
v -3.585051 1.474322 -4.134531
v -3.585051 2.031245 -4.134531
v -2.773321 1.474322 -4.134531
v -2.743321 1.474322 -4.134531
v -2.743321 1.474322 -4.170288
v -2.773321 1.474322 -4.170288
v -2.773321 2.031245 -4.134531
v -2.773321 1.474322 -4.134531
v -2.773321 1.474322 -4.170288
v -2.773321 2.031245 -4.170288
v -2.743321 2.031245 -4.134531
v -2.743321 1.474322 -4.134531
v -2.773321 1.474322 -4.134531
v -2.773321 2.031245 -4.134531
v -3.560318 1.737173 -4.142962
v -2.765325 1.737173 -4.142962
v -2.765326 1.737173 -4.161781
v -3.560318 1.737173 -4.161781
v -3.560318 1.767173 -4.161781
v -2.765326 1.767173 -4.161781
v -2.765325 1.767173 -4.142962
v -3.560318 1.767173 -4.142962
v -3.560318 1.767173 -4.142962
v -2.765325 1.767173 -4.142962
v -2.765325 1.737173 -4.142962
v -3.560318 1.737173 -4.142962
v -3.562073 2.000962 -4.135612
v -2.76708 2.000962 -4.135612
v -2.767081 2.000962 -4.168787
v -3.562074 2.000962 -4.168787
v -3.562073 2.031245 -4.135612
v -2.76708 2.031245 -4.135612
v -2.76708 2.000962 -4.135612
v -3.562073 2.000962 -4.135612
v -3.42082 2.010402 -4.13953
v -3.42082 1.495165 -4.13953
v -3.42082 1.495165 -4.165288
v -3.42082 2.010402 -4.165288
v -3.390821 2.010402 -4.165288
v -3.390821 1.495165 -4.165288
v -3.390821 1.495165 -4.13953
v -3.390821 2.010402 -4.13953
v -3.42082 2.010402 -4.13953
v -3.390821 2.010402 -4.13953
v -3.390821 1.495165 -4.13953
v -3.42082 1.495165 -4.13953
v -3.562074 1.212322 -4.204364
v -2.767081 1.212322 -4.204364
v -2.76708 1.212322 -4.171189
v -3.562073 1.212322 -4.171189
v -3.562073 1.212322 -4.171189
v -2.76708 1.212322 -4.171189
v -2.76708 1.174853 -4.171189
v -3.562073 1.174853 -4.171189
v -3.555051 1.476533 -4.205865
v -3.555051 1.174853 -4.205865
v -3.555051 1.174853 -4.170108
v -3.555051 1.476533 -4.170108
v -3.555051 1.476533 -4.170108
v -3.555051 1.174853 -4.170108
v -3.585051 1.174853 -4.170108
v -3.585051 1.476533 -4.170108
v -2.773321 1.476533 -4.170108
v -2.773321 1.174853 -4.170108
v -2.773321 1.174853 -4.205865
v -2.773321 1.476533 -4.205865
v -2.743321 1.476533 -4.170108
v -2.743321 1.174853 -4.170108
v -2.773321 1.174853 -4.170108
v -2.773321 1.476533 -4.170108
v -3.562073 1.44625 -4.171189
v -2.76708 1.44625 -4.171189
v -2.767081 1.44625 -4.204364
v -3.562074 1.44625 -4.204364
v -3.562073 1.476533 -4.171189
v -2.76708 1.476533 -4.171189
v -2.76708 1.44625 -4.171189
v -3.562073 1.44625 -4.171189
v -3.42082 1.452262 -4.175107
v -3.42082 1.199124 -4.175107
v -3.42082 1.199124 -4.200866
v -3.42082 1.452262 -4.200865
v -3.390821 1.452262 -4.200865
v -3.390821 1.199124 -4.200865
v -3.390821 1.199124 -4.175107
v -3.390821 1.452262 -4.175107
v -3.42082 1.452262 -4.175107
v -3.390821 1.452262 -4.175107
v -3.390821 1.199124 -4.175107
v -3.42082 1.199124 -4.175107
v -2.746324 1.185291 -4.305995
v -2.746322 1.185291 -4.088703
v -3.580554 1.185291 -4.088703
v -3.580552 1.185291 -4.305995
v -2.746322 1.185291 -4.088703
v -2.746324 1.185291 -4.305995
v -2.746324 2.026239 -4.305995
v -2.746323 2.026238 -4.088704
v -3.580552 1.185291 -4.305995
v -3.580554 1.185291 -4.088703
v -3.580553 2.026238 -4.088704
v -3.580552 2.026239 -4.305995
v -2.717487 1.161402 -4.12093
v -3.609389 1.161402 -4.12093
v -3.609389 1.161402 -4.088703
v -2.717487 1.161402 -4.088704
v -2.717487 1.161402 -4.12093
v -2.717487 1.161402 -4.088704
v -2.717487 2.057147 -4.088704
v -2.717487 2.057148 -4.120929
v -3.609389 2.057147 -4.088704
v -3.609389 1.161402 -4.088703
v -3.609389 1.161402 -4.12093
v -3.609389 2.057148 -4.120929
v -2.717487 1.161402 -4.088704
v -3.609389 1.161402 -4.088703
v -3.580554 1.185291 -4.088703
v -2.746322 1.185291 -4.088703
v -2.717487 2.057147 -4.088704
v -2.717487 1.161402 -4.088704
v -2.746322 1.185291 -4.088703
v -2.746323 2.026238 -4.088704
v -3.609389 1.161402 -4.088703
v -3.609389 2.057147 -4.088704
v -3.580553 2.026238 -4.088704
v -3.580554 1.185291 -4.088703
v -2.746324 2.026239 -4.305995
v -3.580552 2.026239 -4.305995
v -3.580553 2.026238 -4.088704
v -2.746323 2.026238 -4.088704
v -2.717487 2.057147 -4.088704
v -3.609389 2.057147 -4.088704
v -3.609389 2.057148 -4.120929
v -2.717487 2.057148 -4.120929
v -2.746323 2.026238 -4.088704
v -3.580553 2.026238 -4.088704
v -3.609389 2.057147 -4.088704
v -2.717487 2.057147 -4.088704
v -3.260917 2.010402 -4.139531
v -3.260917 1.495165 -4.13953
v -3.260917 1.495165 -4.165288
v -3.260917 2.010402 -4.165288
v -3.230917 2.010402 -4.165288
v -3.230917 1.495165 -4.165288
v -3.230917 1.495165 -4.13953
v -3.230917 2.010402 -4.139531
v -3.260917 2.010402 -4.139531
v -3.230917 2.010402 -4.139531
v -3.230917 1.495165 -4.13953
v -3.260917 1.495165 -4.13953
v -3.260917 1.452262 -4.175107
v -3.260917 1.199124 -4.175107
v -3.260917 1.199124 -4.200866
v -3.260917 1.452262 -4.200865
v -3.230917 1.452262 -4.200865
v -3.230917 1.199124 -4.200866
v -3.230917 1.199124 -4.175107
v -3.230917 1.452262 -4.175107
v -3.260917 1.452262 -4.175107
v -3.230917 1.452262 -4.175107
v -3.230917 1.199124 -4.175107
v -3.260917 1.199124 -4.175107
v -3.094761 2.010402 -4.139531
v -3.094761 1.495165 -4.13953
v -3.094761 1.495165 -4.165288
v -3.094761 2.010402 -4.165288
v -3.064761 2.010402 -4.165288
v -3.064761 1.495165 -4.165288
v -3.064761 1.495165 -4.13953
v -3.064761 2.010402 -4.139531
v -3.094761 2.010402 -4.139531
v -3.064761 2.010402 -4.139531
v -3.064761 1.495165 -4.13953
v -3.094761 1.495165 -4.13953
v -3.094761 1.452262 -4.175107
v -3.094761 1.199124 -4.175108
v -3.094761 1.199124 -4.200866
v -3.094761 1.452262 -4.200865
v -3.064761 1.452262 -4.200865
v -3.064761 1.199124 -4.200866
v -3.064761 1.199124 -4.175108
v -3.064761 1.452262 -4.175107
v -3.094761 1.452262 -4.175107
v -3.064761 1.452262 -4.175107
v -3.064761 1.199124 -4.175108
v -3.094761 1.199124 -4.175108
v -2.933027 2.010402 -4.139531
v -2.933027 1.495165 -4.13953
v -2.933027 1.495165 -4.165288
v -2.933027 2.010402 -4.165288
v -2.903027 2.010402 -4.165288
v -2.903027 1.495165 -4.165288
v -2.903027 1.495165 -4.13953
v -2.903027 2.010402 -4.139531
v -2.933027 2.010402 -4.139531
v -2.903027 2.010402 -4.139531
v -2.903027 1.495165 -4.13953
v -2.933027 1.495165 -4.13953
v -2.933027 1.452262 -4.175107
v -2.933027 1.199124 -4.175108
v -2.933027 1.199124 -4.200866
v -2.933027 1.452262 -4.200865
v -2.903027 1.452262 -4.200865
v -2.903027 1.199124 -4.200866
v -2.903027 1.199124 -4.175108
v -2.903027 1.452262 -4.175107
v -2.933027 1.452262 -4.175107
v -2.903027 1.452262 -4.175107
v -2.903027 1.199124 -4.175108
v -2.933027 1.199124 -4.175108
vt 0.4425134 0.5345564
vt 0.5564727 0.5345576
vt 0.5564727 0.4593304
vt 0.4425134 0.4593291
vt 0.4425134 0.6767588
vt 0.5564727 0.6767603
vt 0.5564727 0.6016428
vt 0.4425134 0.6016415
vt 0.4425134 0.6016415
vt 0.5564727 0.6016428
vt 0.5564727 0.5345576
vt 0.4425134 0.5345564
vt 0.1326447 0.3717092
vt 0.1326447 0.4483163
vt 0.1465052 0.4483163
vt 0.1465052 0.3717092
vt 0.04404172 0.5711957
vt 0.1326447 0.5711957
vt 0.1326447 0.4483163
vt 0.04404172 0.4483163
vt 0.04404172 0.4483163
vt 0.1326447 0.4483163
vt 0.1326447 0.3717092
vt 0.04404172 0.3717092
vt 0.1326447 0.4483163
vt 0.1326447 0.3717092
vt 0.1444987 0.3717092
vt 0.1444987 0.4483163
vt 0.04404172 0.4483163
vt 0.1326447 0.4483163
vt 0.1326447 0.5711917
vt 0.04404172 0.5711917
vt 0.04404172 0.3717092
vt 0.1326447 0.3717092
vt 0.1326447 0.4483163
vt 0.04404172 0.4483163
vt 0.04267595 0.1122644
vt 0.1277876 0.1122644
vt 0.1277876 0.02026229
vt 0.04267595 0.02026229
vt 0.04267595 0.3306194
vt 0.1277876 0.3306194
vt 0.1277876 0.2358682
vt 0.04267595 0.2358682
vt 0.04267595 0.2358682
vt 0.1277876 0.2358682
vt 0.1277876 0.1122644
vt 0.04267595 0.1122644
vt 0.4425134 0.4593291
vt 0.5564727 0.4593304
vt 0.5564727 0.3923567
vt 0.4425134 0.3923554
vt 0.4425134 0.5345564
vt 0.5564727 0.5345576
vt 0.5564727 0.4593304
vt 0.4425134 0.4593291
vt 0.1401752 0.1122644
vt 0.2318402 0.1122644
vt 0.2318402 0.02026229
vt 0.1401752 0.02026229
vt 0.1401752 0.3306194
vt 0.2318402 0.3306194
vt 0.2318402 0.2358682
vt 0.1401752 0.2358682
vt 0.1401752 0.1122644
vt 0.1401752 0.2358682
vt 0.2318402 0.2358682
vt 0.2318402 0.1122644
vt 0.4425134 0.6767588
vt 0.5564727 0.6767603
vt 0.5564727 0.6016428
vt 0.4425134 0.6016415
vt 0.4425134 0.6016415
vt 0.5564727 0.6016428
vt 0.5564727 0.5345576
vt 0.4425134 0.5345564
vt 0.2763055 0.920559
vt 0.3767441 0.920559
vt 0.3767441 0.8588012
vt 0.2763055 0.8588012
vt 0.2763055 0.8588012
vt 0.3767441 0.8588012
vt 0.3767441 0.8213986
vt 0.2763055 0.8213986
vt 0.2763055 0.8213946
vt 0.3767441 0.8213946
vt 0.3767441 0.7596511
vt 0.2763055 0.7596511
vt 0.2763055 0.8587992
vt 0.3767441 0.8587992
vt 0.3767441 0.8213946
vt 0.2763055 0.8213946
vt 0.4425134 0.4593291
vt 0.5564727 0.4593304
vt 0.5564727 0.3923567
vt 0.4425134 0.3923554
vt 0.4425134 0.5345564
vt 0.5564727 0.5345576
vt 0.5564727 0.4593304
vt 0.4425134 0.4593291
vt 0.2480216 0.1122644
vt 0.2760373 0.1122644
vt 0.2760373 0.02026229
vt 0.2480216 0.02026229
vt 0.2480216 0.3306194
vt 0.2760373 0.3306194
vt 0.2760373 0.2358682
vt 0.2480216 0.2358682
vt 0.2480216 0.1122644
vt 0.2480216 0.2358682
vt 0.2760373 0.2358682
vt 0.2760373 0.1122644
vt 0.5279043 0.9644883
vt 0.5279043 0.8872682
vt 0.39814 0.8872682
vt 0.39814 0.9644883
vt 0.7196736 0.8272793
vt 0.7196736 0.7710192
vt 0.5620083 0.7710192
vt 0.5620083 0.82728
vt 0.7196736 0.7710192
vt 0.7196736 0.82728
vt 0.5620083 0.8272813
vt 0.5620083 0.7710192
vt 0.5358205 0.7437726
vt 0.3902241 0.7437726
vt 0.3902239 0.8209938
vt 0.5358204 0.8209938
vt 0.7368951 0.9477215
vt 0.7368956 0.8914589
vt 0.5620083 0.8914589
vt 0.5620083 0.9477215
vt 0.5620083 0.8914601
vt 0.7368952 0.8914601
vt 0.7368951 0.9477215
vt 0.5620083 0.9477202
vt 0.5358204 0.8209938
vt 0.3902239 0.8209938
vt 0.39814 0.8872682
vt 0.5279043 0.8872682
vt 0.5620083 0.8914589
vt 0.7368956 0.8914589
vt 0.7196736 0.8272793
vt 0.5620083 0.82728
vt 0.7368952 0.8914601
vt 0.5620083 0.8914601
vt 0.5620083 0.8272813
vt 0.7196736 0.82728
vt 0.5279047 0.9644883
vt 0.3981407 0.9644883
vt 0.3981407 0.8872682
vt 0.5279047 0.8872682
vt 0.535821 0.8209938
vt 0.3902245 0.8209938
vt 0.3902245 0.7437726
vt 0.535821 0.7437726
vt 0.5279047 0.8872682
vt 0.3981407 0.8872682
vt 0.3902245 0.8209938
vt 0.535821 0.8209938
vt 0.1401752 0.1122644
vt 0.2318402 0.1122644
vt 0.2318402 0.02026229
vt 0.1401752 0.02026229
vt 0.1401752 0.3306194
vt 0.2318402 0.3306194
vt 0.2318402 0.2358682
vt 0.1401752 0.2358682
vt 0.1401752 0.1122644
vt 0.1401752 0.2358682
vt 0.2318402 0.2358682
vt 0.2318402 0.1122644
vt 0.2480216 0.1122644
vt 0.2760373 0.1122644
vt 0.2760373 0.02026229
vt 0.2480216 0.02026229
vt 0.2480216 0.3306194
vt 0.2760373 0.3306194
vt 0.2760373 0.2358682
vt 0.2480216 0.2358682
vt 0.2480216 0.1122644
vt 0.2480216 0.2358682
vt 0.2760373 0.2358682
vt 0.2760373 0.1122644
vt 0.1401752 0.1122644
vt 0.2318402 0.1122644
vt 0.2318402 0.02026229
vt 0.1401752 0.02026229
vt 0.1401752 0.3306194
vt 0.2318402 0.3306194
vt 0.2318402 0.2358682
vt 0.1401752 0.2358682
vt 0.1401752 0.1122644
vt 0.1401752 0.2358682
vt 0.2318402 0.2358682
vt 0.2318402 0.1122644
vt 0.2480216 0.1122644
vt 0.2760373 0.1122644
vt 0.2760373 0.02026229
vt 0.2480216 0.02026229
vt 0.2480216 0.3306194
vt 0.2760373 0.3306194
vt 0.2760373 0.2358682
vt 0.2480216 0.2358682
vt 0.2480216 0.1122644
vt 0.2480216 0.2358682
vt 0.2760373 0.2358682
vt 0.2760373 0.1122644
vt 0.1401752 0.1122644
vt 0.2318402 0.1122644
vt 0.2318402 0.02026229
vt 0.1401752 0.02026229
vt 0.1401752 0.3306194
vt 0.2318402 0.3306194
vt 0.2318402 0.2358682
vt 0.1401752 0.2358682
vt 0.1401752 0.1122644
vt 0.1401752 0.2358682
vt 0.2318402 0.2358682
vt 0.2318402 0.1122644
vt 0.2480216 0.1122644
vt 0.2760373 0.1122644
vt 0.2760373 0.02026229
vt 0.2480216 0.02026229
vt 0.2480216 0.3306194
vt 0.2760373 0.3306194
vt 0.2760373 0.2358682
vt 0.2480216 0.2358682
vt 0.2480216 0.1122644
vt 0.2480216 0.2358682
vt 0.2760373 0.2358682
vt 0.2760373 0.1122644
vn 0 -1 0
vn 0 -1 0
vn 0 -1 0
vn 0 -1 0
vn 0 1 0
vn 0 1 0
vn 0 1 0
vn 0 1 0
vn 0 0 1
vn 0 0 1
vn 0 0 1
vn 0 0 1
vn 0 -1 0
vn 0 -1 0
vn 0 -1 0
vn 0 -1 0
vn 1 0 0
vn 1 0 0
vn 1 0 0
vn 1 0 0
vn 0 0 1
vn 0 0 1
vn 0 0 1
vn 0 0 1
vn 0 -1 0
vn 0 -1 0
vn 0 -1 0
vn 0 -1 0
vn -1 0 0
vn -1 0 0
vn -1 0 0
vn -1 0 0
vn 0 0 1
vn 0 0 1
vn 0 0 1
vn 0 0 1
vn 0 -1 0
vn 0 -1 0
vn 0 -1 0
vn 0 -1 0
vn 0 1 0
vn 0 1 0
vn 0 1 0
vn 0 1 0
vn 0 0 1
vn 0 0 1
vn 0 0 1
vn 0 0 1
vn 0 -1 0
vn 0 -1 0
vn 0 -1 0
vn 0 -1 0
vn 0 0 1
vn 0 0 1
vn 0 0 1
vn 0 0 1
vn -1 0 0
vn -1 0 0
vn -1 0 0
vn -1 0 0
vn 1 0 0
vn 1 0 0
vn 1 0 0
vn 1 0 0
vn 0 0 1
vn 0 0 1
vn 0 0 1
vn 0 0 1
vn 0 1 0
vn 0 1 0
vn 0 1 0
vn 0 1 0
vn 0 0 1
vn 0 0 1
vn 0 0 1
vn 0 0 1
vn 1 0 0
vn 1 0 0
vn 1 0 0
vn 1 0 0
vn 0 0 1
vn 0 0 1
vn 0 0 1
vn 0 0 1
vn -1 0 0
vn -1 0 0
vn -1 0 0
vn -1 0 0
vn 0 0 1
vn 0 0 1
vn 0 0 1
vn 0 0 1
vn 0 -1 0
vn 0 -1 0
vn 0 -1 0
vn 0 -1 0
vn 0 0 1
vn 0 0 1
vn 0 0 1
vn 0 0 1
vn -1 0 0
vn -1 0 0
vn -1 0 0
vn -1 0 0
vn 1 0 0
vn 1 0 0
vn 1 0 0
vn 1 0 0
vn 0 0 1
vn 0 0 1
vn 0 0 1
vn 0 0 1
vn 0 1 0
vn 0 1 0
vn 0 1 0
vn 0 1 0
vn -1 0 0
vn -1 0 0
vn -1 0 0
vn -1 0 0
vn 1 0 0
vn 1 0 0
vn 1 0 0
vn 1 0 0
vn 0 -1 0
vn 0 -1 0
vn 0 -1 0
vn 0 -1 0
vn 1 0 0
vn 1 0 0
vn 1 0 0
vn 1 0 0
vn -1 0 0
vn -1 0 0
vn -1 0 0
vn -1 0 0
vn 0 0 1
vn 0 -1.022239E-05 1
vn 0 0 1
vn 0 0 1
vn 0 0 1
vn 0 0 1
vn 0 0 1
vn 0 0 1
vn 0 0 1
vn 0 0 1
vn 0 0 1
vn 0 0 1
vn 0 -1 0
vn 0 -1 0
vn 0 -1 0
vn 0 -1 0
vn 0 1 0
vn 0 1 0
vn 0 1 0
vn 0 1 0
vn 0 0 1
vn 0 0 1
vn 0 0 1
vn 0 0 1
vn -1 0 0
vn -1 0 0
vn -1 0 0
vn -1 0 0
vn 1 0 0
vn 1 0 0
vn 1 0 0
vn 1 0 0
vn 0 0 1
vn 0 0 1
vn 0 0 1
vn 0 0 1
vn -1 0 0
vn -1 0 0
vn -1 0 0
vn -1 0 0
vn 1 0 0
vn 1 0 0
vn 1 0 0
vn 1 0 0
vn 0 0 1
vn 0 0 1
vn 0 0 1
vn 0 0 1
vn -1 0 0
vn -1 0 0
vn -1 0 0
vn -1 0 0
vn 1 0 0
vn 1 0 0
vn 1 0 0
vn 1 0 0
vn 0 0 1
vn 0 0 1
vn 0 0 1
vn 0 0 1
vn -1 0 0
vn -1 0 0
vn -1 0 0
vn -1 0 0
vn 1 0 0
vn 1 0 0
vn 1 0 0
vn 1 0 0
vn 0 0 1
vn 0 0 1
vn 0 0 1
vn 0 0 1
vn -1 0 0
vn -1 0 0
vn -1 0 0
vn -1 0 0
vn 1 0 0
vn 1 0 0
vn 1 0 0
vn 1 0 0
vn 0 0 1
vn 0 0 1
vn 0 0 1
vn 0 0 1
vn -1 0 0
vn -1 0 0
vn -1 0 0
vn -1 0 0
vn 1 0 0
vn 1 0 0
vn 1 0 0
vn 1 0 0
vn 0 0 1
vn 0 0 1
vn 0 0 1
vn 0 0 1
g Kitchen_windows02_0
f 3/3/3 2/2/2 1/1/1
f 4/4/4 3/3/3 1/1/1
f 7/7/7 6/6/6 5/5/5
f 8/8/8 7/7/7 5/5/5
f 11/11/11 10/10/10 9/9/9
f 12/12/12 11/11/11 9/9/9
f 15/15/15 14/14/14 13/13/13
f 16/16/16 15/15/15 13/13/13
f 19/19/19 18/18/18 17/17/17
f 20/20/20 19/19/19 17/17/17
f 23/23/23 22/22/22 21/21/21
f 24/24/24 23/23/23 21/21/21
f 27/27/27 26/26/26 25/25/25
f 28/28/28 27/27/27 25/25/25
f 31/31/31 30/30/30 29/29/29
f 32/32/32 31/31/31 29/29/29
f 35/35/35 34/34/34 33/33/33
f 36/36/36 35/35/35 33/33/33
f 39/39/39 38/38/38 37/37/37
f 40/40/40 39/39/39 37/37/37
f 43/43/43 42/42/42 41/41/41
f 44/44/44 43/43/43 41/41/41
f 47/47/47 46/46/46 45/45/45
f 48/48/48 47/47/47 45/45/45
f 51/51/51 50/50/50 49/49/49
f 52/52/52 51/51/51 49/49/49
f 55/55/55 54/54/54 53/53/53
f 56/56/56 55/55/55 53/53/53
f 59/59/59 58/58/58 57/57/57
f 60/60/60 59/59/59 57/57/57
f 63/63/63 62/62/62 61/61/61
f 64/64/64 63/63/63 61/61/61
f 67/67/67 66/66/66 65/65/65
f 68/68/68 67/67/67 65/65/65
f 71/71/71 70/70/70 69/69/69
f 72/72/72 71/71/71 69/69/69
f 75/75/75 74/74/74 73/73/73
f 76/76/76 75/75/75 73/73/73
f 79/79/79 78/78/78 77/77/77
f 80/80/80 79/79/79 77/77/77
f 83/83/83 82/82/82 81/81/81
f 84/84/84 83/83/83 81/81/81
f 87/87/87 86/86/86 85/85/85
f 88/88/88 87/87/87 85/85/85
f 91/91/91 90/90/90 89/89/89
f 92/92/92 91/91/91 89/89/89
f 95/95/95 94/94/94 93/93/93
f 96/96/96 95/95/95 93/93/93
f 99/99/99 98/98/98 97/97/97
f 100/100/100 99/99/99 97/97/97
f 103/103/103 102/102/102 101/101/101
f 104/104/104 103/103/103 101/101/101
f 107/107/107 106/106/106 105/105/105
f 108/108/108 107/107/107 105/105/105
f 111/111/111 110/110/110 109/109/109
f 112/112/112 111/111/111 109/109/109
f 115/115/115 114/114/114 113/113/113
f 116/116/116 115/115/115 113/113/113
f 119/119/119 118/118/118 117/117/117
f 120/120/120 119/119/119 117/117/117
f 123/123/123 122/122/122 121/121/121
f 124/124/124 123/123/123 121/121/121
f 127/127/127 126/126/126 125/125/125
f 128/128/128 127/127/127 125/125/125
f 131/131/131 130/130/130 129/129/129
f 132/132/132 131/131/131 129/129/129
f 135/135/135 134/134/134 133/133/133
f 136/136/136 135/135/135 133/133/133
f 139/139/139 138/138/138 137/137/137
f 140/140/140 139/139/139 137/137/137
f 143/143/143 142/142/142 141/141/141
f 144/144/144 143/143/143 141/141/141
f 147/147/147 146/146/146 145/145/145
f 148/148/148 147/147/147 145/145/145
f 151/151/151 150/150/150 149/149/149
f 152/152/152 151/151/151 149/149/149
f 155/155/155 154/154/154 153/153/153
f 156/156/156 155/155/155 153/153/153
f 159/159/159 158/158/158 157/157/157
f 160/160/160 159/159/159 157/157/157
f 163/163/163 162/162/162 161/161/161
f 164/164/164 163/163/163 161/161/161
f 167/167/167 166/166/166 165/165/165
f 168/168/168 167/167/167 165/165/165
f 171/171/171 170/170/170 169/169/169
f 172/172/172 171/171/171 169/169/169
f 175/175/175 174/174/174 173/173/173
f 176/176/176 175/175/175 173/173/173
f 179/179/179 178/178/178 177/177/177
f 180/180/180 179/179/179 177/177/177
f 183/183/183 182/182/182 181/181/181
f 184/184/184 183/183/183 181/181/181
f 187/187/187 186/186/186 185/185/185
f 188/188/188 187/187/187 185/185/185
f 191/191/191 190/190/190 189/189/189
f 192/192/192 191/191/191 189/189/189
f 195/195/195 194/194/194 193/193/193
f 196/196/196 195/195/195 193/193/193
f 199/199/199 198/198/198 197/197/197
f 200/200/200 199/199/199 197/197/197
f 203/203/203 202/202/202 201/201/201
f 204/204/204 203/203/203 201/201/201
f 207/207/207 206/206/206 205/205/205
f 208/208/208 207/207/207 205/205/205
f 211/211/211 210/210/210 209/209/209
f 212/212/212 211/211/211 209/209/209
f 215/215/215 214/214/214 213/213/213
f 216/216/216 215/215/215 213/213/213
f 219/219/219 218/218/218 217/217/217
f 220/220/220 219/219/219 217/217/217
f 223/223/223 222/222/222 221/221/221
f 224/224/224 223/223/223 221/221/221
f 227/227/227 226/226/226 225/225/225
f 228/228/228 227/227/227 225/225/225
f 231/231/231 230/230/230 229/229/229
f 232/232/232 231/231/231 229/229/229
