g Door_windows
v -0.03707957 2.6183 -4.083811
v -0.03707957 2.23817 -4.083811
v -0.09149718 2.195102 -4.083809
v -0.09149647 2.661367 -4.083809
v 0.9534082 2.661367 -4.083811
v 0.9534082 2.195102 -4.083811
v 0.8964591 2.23817 -4.083811
v 0.8964591 2.6183 -4.083811
v -0.09149647 2.661367 -4.083809
v 0.9534082 2.661367 -4.083811
v 0.8964591 2.6183 -4.083811
v -0.03707957 2.6183 -4.083811
v -0.03707957 2.23817 -4.083811
v 0.8964591 2.23817 -4.083811
v 0.9534082 2.195102 -4.083811
v -0.09149718 2.195102 -4.083809
v 0.8964591 2.23817 -4.083811
v 0.8964581 2.23817 -4.133811
v 0.8964581 2.6183 -4.133811
v 0.8964591 2.6183 -4.083811
v -0.03707957 2.6183 -4.083811
v -0.03707957 2.6183 -4.133811
v -0.03707957 2.23817 -4.133811
v -0.03707957 2.23817 -4.083811
v 0.8964591 2.6183 -4.083811
v 0.8964581 2.6183 -4.133811
v -0.03707957 2.6183 -4.133811
v -0.03707957 2.6183 -4.083811
v -0.03707957 2.23817 -4.083811
v -0.03707957 2.23817 -4.133811
v 0.8964581 2.23817 -4.133811
v 0.8964591 2.23817 -4.083811
v -1.133868 2.195102 -4.083807
v -1.133868 2.661367 -4.083807
v -1.079452 2.6183 -4.083807
v -1.079452 2.23817 -4.083807
v -1.133868 2.661367 -4.083807
v -0.09149647 2.661367 -4.083809
v -0.1459134 2.6183 -4.083807
v -1.079452 2.6183 -4.083807
v -1.079452 2.23817 -4.083807
v -0.1459141 2.23817 -4.083807
v -0.09149718 2.195102 -4.083809
v -1.133868 2.195102 -4.083807
v -0.09149718 2.195102 -4.083809
v -0.1459141 2.23817 -4.083807
v -0.1459134 2.6183 -4.083807
v -0.09149647 2.661367 -4.083809
v -0.1459141 2.23817 -4.083807
v -0.1459138 2.23817 -4.133807
v -0.1459141 2.6183 -4.133808
v -0.1459134 2.6183 -4.083807
v -1.079452 2.6183 -4.083807
v -1.079452 2.6183 -4.133808
v -1.079451 2.23817 -4.133807
v -1.079452 2.23817 -4.083807
v -0.1459134 2.6183 -4.083807
v -0.1459141 2.6183 -4.133808
v -1.079452 2.6183 -4.133808
v -1.079452 2.6183 -4.083807
v -1.079452 2.23817 -4.083807
v -1.079451 2.23817 -4.133807
v -0.1459138 2.23817 -4.133807
v -0.1459141 2.23817 -4.083807
v 0.7259712 2.224367 -4.118038
v 0.7259712 2.224367 -4.101224
v 0.7259712 2.620905 -4.101224
v 0.7259727 2.620905 -4.118038
v 0.7259712 2.224367 -4.101224
v 0.6982217 2.224367 -4.101224
v 0.6982226 2.620905 -4.101224
v 0.7259712 2.620905 -4.101224
v 0.6982217 2.620905 -4.118038
v 0.6982226 2.620905 -4.101224
v 0.6982217 2.224367 -4.101224
v 0.6982217 2.224367 -4.118038
v 0.5389838 2.224367 -4.118038
v 0.5389829 2.224367 -4.101224
v 0.5389848 2.620905 -4.101224
v 0.5389848 2.620905 -4.118038
v 0.5389829 2.224367 -4.101224
v 0.5112348 2.224367 -4.101224
v 0.5112352 2.620905 -4.101224
v 0.5389848 2.620905 -4.101224
v 0.5112348 2.620905 -4.118038
v 0.5112352 2.620905 -4.101224
v 0.5112348 2.224367 -4.101224
v 0.5112352 2.224367 -4.118038
v 0.3519979 2.224367 -4.118038
v 0.3519974 2.224367 -4.101224
v 0.3519974 2.620905 -4.101224
v 0.3519974 2.620905 -4.118038
v 0.3519974 2.224367 -4.101224
v 0.3242478 2.224367 -4.101224
v 0.3242478 2.620905 -4.101224
v 0.3519974 2.620905 -4.101224
v 0.3242478 2.620905 -4.118038
v 0.3242478 2.620905 -4.101224
v 0.3242478 2.224367 -4.101224
v 0.3242478 2.224367 -4.118038
v 0.1650105 2.224367 -4.118038
v 0.16501 2.224367 -4.101224
v 0.1650105 2.620905 -4.101224
v 0.1650105 2.620905 -4.118038
v 0.16501 2.224367 -4.101224
v 0.13726 2.224367 -4.101224
v 0.1372604 2.620905 -4.101224
v 0.1650105 2.620905 -4.101224
v 0.1372604 2.620905 -4.118038
v 0.1372604 2.620905 -4.101224
v 0.13726 2.224367 -4.101224
v 0.1372604 2.224367 -4.118038
v 0.9107642 2.439205 -4.120344
v 0.9107642 2.439204 -4.098918
v -0.04753375 2.439205 -4.098918
v -0.04753327 2.439205 -4.120344
v 0.9107642 2.439204 -4.098918
v 0.9107633 2.411351 -4.098918
v -0.04753327 2.411351 -4.098918
v -0.04753375 2.439205 -4.098918
v -0.04753327 2.411351 -4.120344
v -0.04753327 2.411351 -4.098918
v 0.9107633 2.411351 -4.098918
v 0.9107642 2.411351 -4.120344
v -0.317971 2.224367 -4.116457
v -0.317971 2.224367 -4.099643
v -0.317971 2.620905 -4.099643
v -0.317971 2.620906 -4.116457
v -0.317971 2.224367 -4.099643
v -0.3457205 2.224367 -4.099643
v -0.3457205 2.620905 -4.099643
v -0.317971 2.620905 -4.099643
v -0.3457212 2.620905 -4.116457
v -0.3457205 2.620905 -4.099643
v -0.3457205 2.224367 -4.099643
v -0.3457205 2.224367 -4.116457
v -0.5049579 2.224367 -4.116457
v -0.5049586 2.224367 -4.099643
v -0.5049579 2.620905 -4.099643
v -0.5049579 2.620905 -4.116457
v -0.5049586 2.224367 -4.099643
v -0.5327082 2.224367 -4.099643
v -0.5327072 2.620905 -4.099643
v -0.5049579 2.620905 -4.099643
v -0.5327082 2.620906 -4.116457
v -0.5327072 2.620905 -4.099643
v -0.5327082 2.224367 -4.099643
v -0.5327072 2.224367 -4.116457
v -0.6919453 2.224367 -4.116457
v -0.6919453 2.224367 -4.099643
v -0.6919446 2.620905 -4.099643
v -0.6919446 2.620905 -4.116457
v -0.6919453 2.224367 -4.099643
v -0.7196949 2.224367 -4.099643
v -0.7196949 2.620905 -4.099643
v -0.6919446 2.620905 -4.099643
v -0.7196949 2.620905 -4.116457
v -0.7196949 2.620905 -4.099643
v -0.7196949 2.224367 -4.099643
v -0.7196949 2.224367 -4.116457
v -0.878932 2.224367 -4.116457
v -0.878933 2.224367 -4.099643
v -0.878932 2.620905 -4.099643
v -0.878932 2.620906 -4.116457
v -0.878933 2.224367 -4.099643
v -0.9066825 2.224367 -4.099643
v -0.9066825 2.620905 -4.099643
v -0.878932 2.620905 -4.099643
v -0.9066823 2.620905 -4.116457
v -0.9066825 2.620905 -4.099643
v -0.9066825 2.224367 -4.099643
v -0.9066825 2.224367 -4.116457
v -0.1331775 2.439521 -4.118763
v -0.1331775 2.439521 -4.097337
v -1.091475 2.43952 -4.097337
v -1.091475 2.439521 -4.118763
v -0.1331775 2.439521 -4.097337
v -0.1331775 2.411036 -4.097337
v -1.091475 2.411036 -4.097337
v -1.091475 2.43952 -4.097337
v -1.091475 2.411036 -4.118763
v -1.091475 2.411036 -4.097337
v -0.1331775 2.411036 -4.097337
v -0.1331775 2.411036 -4.118763
vt 0.3386981 0.519989
vt 0.2635553 0.519989
vt 0.2550422 0.6492308
vt 0.3472108 0.6492308
vt 0.3383212 0.3922008
vt 0.2461525 0.3922008
vt 0.2546656 0.519989
vt 0.3298083 0.519989
vt 0.1953529 0.6492308
vt 0.401904 0.6492308
vt 0.3906469 0.519989
vt 0.2061096 0.519989
vt 0.2093664 0.519989
vt 0.3939031 0.519989
vt 0.4051605 0.3922008
vt 0.1986091 0.3922008
vt 0.2546656 0.519989
vt 0.2546656 0.6492308
vt 0.3298083 0.6492308
vt 0.3298083 0.519989
vt 0.3386981 0.519989
vt 0.3386981 0.3922008
vt 0.2635553 0.3922008
vt 0.2635553 0.519989
vt 0.3906469 0.519989
vt 0.3906469 0.3922008
vt 0.2061096 0.3922008
vt 0.2061096 0.519989
vt 0.2093664 0.519989
vt 0.2093664 0.6492308
vt 0.3939031 0.6492308
vt 0.3939031 0.519989
vt 0.2255367 0.6492308
vt 0.3177053 0.6492308
vt 0.3091924 0.519989
vt 0.2340497 0.519989
vt 0.192444 0.6492308
vt 0.3984942 0.6492308
vt 0.3877376 0.519989
vt 0.2032008 0.519989
vt 0.2173079 0.519989
vt 0.4018447 0.519989
vt 0.4126014 0.3922008
vt 0.2065512 0.3922008
vt 0.2487544 0.3922008
vt 0.2572674 0.519989
vt 0.3324102 0.519989
vt 0.340923 0.3922008
vt 0.2572674 0.519989
vt 0.2572674 0.6492308
vt 0.3324102 0.6492308
vt 0.3324102 0.519989
vt 0.3091924 0.519989
vt 0.3091924 0.3922008
vt 0.2340497 0.3922008
vt 0.2340497 0.519989
vt 0.3877376 0.519989
vt 0.3877376 0.3922008
vt 0.2032008 0.3922008
vt 0.2032008 0.519989
vt 0.2173079 0.519989
vt 0.2173082 0.6492308
vt 0.4018447 0.6492308
vt 0.4018447 0.519989
vt 0.4180209 0.02026229
vt 0.4180209 0.1122644
vt 0.4702823 0.1122644
vt 0.4702823 0.02026229
vt 0.4180209 0.1122644
vt 0.4180209 0.2358682
vt 0.4702823 0.2358682
vt 0.4702823 0.1122644
vt 0.4702823 0.3306194
vt 0.4702823 0.2358682
vt 0.4180209 0.2358682
vt 0.4180209 0.3306194
vt 0.4180209 0.02026229
vt 0.4180209 0.1122644
vt 0.4702823 0.1122644
vt 0.4702823 0.02026229
vt 0.4180209 0.1122644
vt 0.4180209 0.2358682
vt 0.4702823 0.2358682
vt 0.4702823 0.1122644
vt 0.4702823 0.3306194
vt 0.4702823 0.2358682
vt 0.4180209 0.2358682
vt 0.4180209 0.3306194
vt 0.4180209 0.02026229
vt 0.4180209 0.1122644
vt 0.4702823 0.1122644
vt 0.4702823 0.02026229
vt 0.4180209 0.1122644
vt 0.4180209 0.2358682
vt 0.4702823 0.2358682
vt 0.4702823 0.1122644
vt 0.4702823 0.3306194
vt 0.4702823 0.2358682
vt 0.4180209 0.2358682
vt 0.4180209 0.3306194
vt 0.4180209 0.02026229
vt 0.4180209 0.1122644
vt 0.4702823 0.1122644
vt 0.4702823 0.02026229
vt 0.4180209 0.1122644
vt 0.4180209 0.2358682
vt 0.4702823 0.2358682
vt 0.4702823 0.1122644
vt 0.4702823 0.3306194
vt 0.4702823 0.2358682
vt 0.4180209 0.2358682
vt 0.4180209 0.3306194
vt 0.4121857 0.3306194
vt 0.4121857 0.2358682
vt 0.2859587 0.2358682
vt 0.2859587 0.3306194
vt 0.4121857 0.2358682
vt 0.4121857 0.1122644
vt 0.2859587 0.1122644
vt 0.2859587 0.2358682
vt 0.2859587 0.02026229
vt 0.2859587 0.1122644
vt 0.4121857 0.1122644
vt 0.4121857 0.02026229
vt 0.4180209 0.02026229
vt 0.4180209 0.1122644
vt 0.4702823 0.1122644
vt 0.4702823 0.02026229
vt 0.4180209 0.1122644
vt 0.4180209 0.2358682
vt 0.4702823 0.2358682
vt 0.4702823 0.1122644
vt 0.4702823 0.3306194
vt 0.4702823 0.2358682
vt 0.4180209 0.2358682
vt 0.4180209 0.3306194
vt 0.4180209 0.02026229
vt 0.4180209 0.1122644
vt 0.4702823 0.1122644
vt 0.4702823 0.02026229
vt 0.4180209 0.1122644
vt 0.4180209 0.2358682
vt 0.4702823 0.2358682
vt 0.4702823 0.1122644
vt 0.4702823 0.3306194
vt 0.4702823 0.2358682
vt 0.4180209 0.2358682
vt 0.4180209 0.3306194
vt 0.4180209 0.02026229
vt 0.4180209 0.1122644
vt 0.4702823 0.1122644
vt 0.4702823 0.02026229
vt 0.4180209 0.1122644
vt 0.4180209 0.2358682
vt 0.4702823 0.2358682
vt 0.4702823 0.1122644
vt 0.4702823 0.3306194
vt 0.4702823 0.2358682
vt 0.4180209 0.2358682
vt 0.4180209 0.3306194
vt 0.4180209 0.02026229
vt 0.4180209 0.1122644
vt 0.4702823 0.1122644
vt 0.4702823 0.02026229
vt 0.4180209 0.1122644
vt 0.4180209 0.2358682
vt 0.4702823 0.2358682
vt 0.4702823 0.1122644
vt 0.4702823 0.3306194
vt 0.4702823 0.2358682
vt 0.4180209 0.2358682
vt 0.4180209 0.3306194
vt 0.4121857 0.3306194
vt 0.4121857 0.2358682
vt 0.2859587 0.2358682
vt 0.2859587 0.3306194
vt 0.4121857 0.2358682
vt 0.4121857 0.1122644
vt 0.2859587 0.1122644
vt 0.2859587 0.2358682
vt 0.2859587 0.02026229
vt 0.2859587 0.1122644
vt 0.4121857 0.1122644
vt 0.4121857 0.02026229
vn 3.395511E-05 0 1
vn 3.395511E-05 0 1
vn 3.395512E-05 0 1
vn 3.395511E-05 0 1
vn 0 0 1
vn 0 0 1
vn 0 0 1
vn 0 0 1
vn 0 -2.147932E-05 1
vn 0 -2.147932E-05 1
vn 0 -2.147932E-05 1
vn 0 -2.147932E-05 1
vn 0 2.147907E-05 1
vn 0 2.147908E-05 1
vn 0 2.147907E-05 1
vn 0 2.147907E-05 1
vn -1 0 1.90735E-05
vn -1 0 1.907351E-05
vn -1 0 1.90735E-05
vn -1 0 1.907351E-05
vn 1 0 0
vn 1 0 0
vn 1 0 0
vn 1 0 0
vn 0 -1 0
vn 0 -1 0
vn 0 -1 0
vn 0 -1 0
vn 0 1 0
vn 0 1 0
vn 0 1 0
vn 0 1 0
vn 0 0 1
vn 0 0 1
vn 0 0 1
vn 0 0 1
vn 0 2.075986E-05 1
vn 0 2.075986E-05 1
vn 0 2.075986E-05 1
vn 0 2.075986E-05 1
vn 0 -2.145161E-05 1
vn 0 -2.145161E-05 1
vn 0 -2.145161E-05 1
vn 0 -2.145161E-05 1
vn 3.340767E-05 0 1
vn 3.340767E-05 0 1
vn 3.340767E-05 0 1
vn 3.340767E-05 0 1
vn -1 0 0
vn -1 0 0
vn -1 0 0
vn -1 0 0
vn 1 0 0
vn 1 0 0
vn 1 0 0
vn 1 0 0
vn 0 -1 0
vn 0 -1 0
vn 0 -1 0
vn 0 -1 0
vn 0 1 0
vn 0 1 0
vn 0 1 0
vn 0 1 0
vn 1 0 4.253932E-05
vn 1 0 4.253932E-05
vn 1 0 4.253932E-05
vn 1 0 4.253932E-05
vn 0 0 1
vn 0 0 1
vn 0 0 1
vn 0 0 1
vn -1 0 2.835954E-05
vn -1 0 2.835954E-05
vn -1 0 2.835954E-05
vn -1 0 2.835954E-05
vn 1 0 2.835954E-05
vn 1 0 2.835954E-05
vn 1 0 2.835954E-05
vn 1 0 2.835954E-05
vn 0 0 1
vn 0 0 1
vn 0 0 1
vn 0 0 1
vn -1 0 0
vn -1 0 0
vn -1 0 0
vn -1 0 0
vn 1 0 1.417977E-05
vn 1 0 1.417977E-05
vn 1 0 1.417977E-05
vn 1 0 1.417977E-05
vn 0 0 1
vn 0 0 1
vn 0 0 1
vn 0 0 1
vn -1 0 0
vn -1 0 0
vn -1 0 0
vn -1 0 0
vn 1 0 1.417977E-05
vn 1 0 1.417977E-05
vn 1 0 1.417977E-05
vn 1 0 1.417977E-05
vn 0 0 1
vn 0 0 1
vn 0 0 1
vn 0 0 1
vn -1 0 -1.417977E-05
vn -1 0 -1.417977E-05
vn -1 0 -1.417977E-05
vn -1 0 -1.417977E-05
vn 0 1 1.112765E-05
vn 0 1 1.112765E-05
vn 0 1 1.112765E-05
vn 0 1 1.112765E-05
vn 0 0 1
vn 0 0 1
vn 0 0 1
vn 0 0 1
vn 0 -1 0
vn 0 -1 0
vn 0 -1 0
vn 0 -1 0
vn 1 0 0
vn 1 0 0
vn 1 0 0
vn 1 0 0
vn 0 0 1
vn 0 0 1
vn 0 0 1
vn 0 0 1
vn -1 0 2.126966E-05
vn -1 0 2.126966E-05
vn -1 0 2.126966E-05
vn -1 0 2.126966E-05
vn 1 0 2.126966E-05
vn 1 0 2.126966E-05
vn 1 0 2.126966E-05
vn 1 0 2.126966E-05
vn 0 0 1
vn 0 0 1
vn 0 0 1
vn 0 0 1
vn -1 0 0
vn -1 0 0
vn -1 0 0
vn -1 0 0
vn 1 0 0
vn 1 0 0
vn 1 0 0
vn 1 0 0
vn 0 0 1
vn 0 0 1
vn 0 0 1
vn 0 0 1
vn -1 0 0
vn -1 0 0
vn -1 0 0
vn -1 0 0
vn 1 0 2.835953E-05
vn 1 0 2.835953E-05
vn 1 0 2.835953E-05
vn 1 0 2.835953E-05
vn 0 0 1
vn 0 0 1
vn 0 0 1
vn 0 0 1
vn -1 0 0
vn -1 0 0
vn -1 0 0
vn -1 0 0
vn 0 1 1.112765E-05
vn 0 1 1.112765E-05
vn 0 1 1.112765E-05
vn 0 1 1.112765E-05
vn 0 0 1
vn 0 0 1
vn 0 0 1
vn 0 0 1
vn 0 -1 -1.112765E-05
vn 0 -1 -1.112765E-05
vn 0 -1 -1.112765E-05
vn 0 -1 -1.112765E-05
g Door_windows_0
f 3/3/3 2/2/2 1/1/1
f 4/4/4 3/3/3 1/1/1
f 7/7/7 6/6/6 5/5/5
f 8/8/8 7/7/7 5/5/5
f 11/11/11 10/10/10 9/9/9
f 12/12/12 11/11/11 9/9/9
f 15/15/15 14/14/14 13/13/13
f 16/16/16 15/15/15 13/13/13
f 19/19/19 18/18/18 17/17/17
f 20/20/20 19/19/19 17/17/17
f 23/23/23 22/22/22 21/21/21
f 24/24/24 23/23/23 21/21/21
f 27/27/27 26/26/26 25/25/25
f 28/28/28 27/27/27 25/25/25
f 31/31/31 30/30/30 29/29/29
f 32/32/32 31/31/31 29/29/29
f 35/35/35 34/34/34 33/33/33
f 36/36/36 35/35/35 33/33/33
f 39/39/39 38/38/38 37/37/37
f 40/40/40 39/39/39 37/37/37
f 43/43/43 42/42/42 41/41/41
f 44/44/44 43/43/43 41/41/41
f 47/47/47 46/46/46 45/45/45
f 48/48/48 47/47/47 45/45/45
f 51/51/51 50/50/50 49/49/49
f 52/52/52 51/51/51 49/49/49
f 55/55/55 54/54/54 53/53/53
f 56/56/56 55/55/55 53/53/53
f 59/59/59 58/58/58 57/57/57
f 60/60/60 59/59/59 57/57/57
f 63/63/63 62/62/62 61/61/61
f 64/64/64 63/63/63 61/61/61
f 67/67/67 66/66/66 65/65/65
f 68/68/68 67/67/67 65/65/65
f 71/71/71 70/70/70 69/69/69
f 72/72/72 71/71/71 69/69/69
f 75/75/75 74/74/74 73/73/73
f 76/76/76 75/75/75 73/73/73
f 79/79/79 78/78/78 77/77/77
f 80/80/80 79/79/79 77/77/77
f 83/83/83 82/82/82 81/81/81
f 84/84/84 83/83/83 81/81/81
f 87/87/87 86/86/86 85/85/85
f 88/88/88 87/87/87 85/85/85
f 91/91/91 90/90/90 89/89/89
f 92/92/92 91/91/91 89/89/89
f 95/95/95 94/94/94 93/93/93
f 96/96/96 95/95/95 93/93/93
f 99/99/99 98/98/98 97/97/97
f 100/100/100 99/99/99 97/97/97
f 103/103/103 102/102/102 101/101/101
f 104/104/104 103/103/103 101/101/101
f 107/107/107 106/106/106 105/105/105
f 108/108/108 107/107/107 105/105/105
f 111/111/111 110/110/110 109/109/109
f 112/112/112 111/111/111 109/109/109
f 115/115/115 114/114/114 113/113/113
f 116/116/116 115/115/115 113/113/113
f 119/119/119 118/118/118 117/117/117
f 120/120/120 119/119/119 117/117/117
f 123/123/123 122/122/122 121/121/121
f 124/124/124 123/123/123 121/121/121
f 127/127/127 126/126/126 125/125/125
f 128/128/128 127/127/127 125/125/125
f 131/131/131 130/130/130 129/129/129
f 132/132/132 131/131/131 129/129/129
f 135/135/135 134/134/134 133/133/133
f 136/136/136 135/135/135 133/133/133
f 139/139/139 138/138/138 137/137/137
f 140/140/140 139/139/139 137/137/137
f 143/143/143 142/142/142 141/141/141
f 144/144/144 143/143/143 141/141/141
f 147/147/147 146/146/146 145/145/145
f 148/148/148 147/147/147 145/145/145
f 151/151/151 150/150/150 149/149/149
f 152/152/152 151/151/151 149/149/149
f 155/155/155 154/154/154 153/153/153
f 156/156/156 155/155/155 153/153/153
f 159/159/159 158/158/158 157/157/157
f 160/160/160 159/159/159 157/157/157
f 163/163/163 162/162/162 161/161/161
f 164/164/164 163/163/163 161/161/161
f 167/167/167 166/166/166 165/165/165
f 168/168/168 167/167/167 165/165/165
f 171/171/171 170/170/170 169/169/169
f 172/172/172 171/171/171 169/169/169
f 175/175/175 174/174/174 173/173/173
f 176/176/176 175/175/175 173/173/173
f 179/179/179 178/178/178 177/177/177
f 180/180/180 179/179/179 177/177/177
f 183/183/183 182/182/182 181/181/181
f 184/184/184 183/183/183 181/181/181
