g Kitchen_FridgeDoor
v 0.6617482 -0.01210721 0.1001725
v 0.6617482 0.005008533 0.1001755
v 0.6658327 0.005008533 0.09608839
v 0.6658328 -0.01210721 0.09608509
v 0.6567201 -0.02707843 0.1001699
v 0.6599492 -0.02983299 0.09608173
v 0.6416358 -0.03210653 0.100169
v 0.6422986 -0.03571642 0.09608063
v 0.0152765 -0.03210663 0.1001693
v 0.0146137 -0.03571642 0.09608093
v -0.003036905 -0.02983299 0.09608207
v 0.0001922384 -0.02707853 0.1001702
v -0.00892048 -0.01210721 0.09608544
v -0.00483589 -0.01210721 0.1001729
v -0.00892036 0.005008533 0.09608875
v -0.00483589 0.005008533 0.1001758
v 0.6658327 0.005008533 0.09608839
v 0.6658319 0.005008533 -0.8311511
v 0.665832 -0.01210721 -0.8311511
v 0.6658328 -0.01210721 0.09608509
v 0.6599485 -0.02983299 -0.8311511
v 0.6599492 -0.02983299 0.09608173
v 0.6422979 -0.03571642 -0.8311511
v 0.6422986 -0.03571642 0.09608063
v 0.01461299 -0.03571642 -0.8311508
v 0.0146137 -0.03571642 0.09608093
v -0.003036905 -0.02983299 0.09608207
v -0.003037615 -0.02983299 -0.8311508
v -0.00892048 -0.01210721 0.09608544
v -0.008921189 -0.01210721 -0.8311508
v -0.00892036 0.005008533 0.09608875
v -0.00892107 0.005008533 -0.8311508
v 0.6617482 -0.01210721 0.1001725
v -0.00483589 -0.01210721 0.1001729
v -0.00483589 0.005008533 0.1001758
v 0.6617482 0.005008533 0.1001755
v 0.6567201 -0.02707843 0.1001699
v -0.00483589 -0.01210721 0.1001729
v 0.6617482 -0.01210721 0.1001725
v 0.0001922384 -0.02707853 0.1001702
v 0.6416358 -0.03210653 0.100169
v 0.0152765 -0.03210663 0.1001693
v 0.6422979 -0.03571642 -0.8311511
v -0.003037615 -0.02983299 -0.8311508
v 0.01461299 -0.03571642 -0.8311508
v 0.6599485 -0.02983299 -0.8311511
v -0.008921189 -0.01210721 -0.8311508
v 0.665832 -0.01210721 -0.8311511
v 0.6658319 0.005008533 -0.8311511
v -0.00892107 0.005008533 -0.8311508
v 0.5997317 -0.03309124 -0.06646649
v 0.5916775 -0.03309122 -0.06862427
v 0.5916774 -0.07889347 -0.06862427
v 0.5997317 -0.07889348 -0.06646649
v 0.6056268 -0.03309124 -0.06057144
v 0.6056268 -0.07889349 -0.06057144
v 0.6077831 -0.03309125 -0.05256869
v 0.607783 -0.07889349 -0.05256869
v 0.6056268 -0.03309124 -0.04450477
v 0.6056268 -0.07889349 -0.04450477
v 0.5997317 -0.03309124 -0.03860975
v 0.6056268 -0.09495459 -0.04450477
v 0.607783 -0.09495459 -0.05256869
v 0.5997317 -0.09495459 -0.03860975
v 0.5997317 -0.07889348 -0.03860975
v 0.5916775 -0.03309122 -0.036452
v 0.5916774 -0.09495457 -0.036452
v 0.5916774 -0.07889347 -0.036452
v 0.5836262 -0.03309121 -0.03860975
v 0.5836261 -0.09495457 -0.03860975
v 0.5836262 -0.07889346 -0.03860975
v 0.5777311 -0.03309121 -0.04450476
v 0.577731 -0.09495456 -0.04450476
v 0.577731 -0.07889345 -0.04450476
v 0.5755718 -0.09495455 -0.05256867
v 0.5755719 -0.0330912 -0.05256867
v 0.5755718 -0.07889345 -0.05256867
v 0.5777311 -0.03309121 -0.06057143
v 0.577731 -0.07889345 -0.06057143
v 0.5836262 -0.03309121 -0.06646648
v 0.5836261 -0.07889346 -0.06646648
v 0.5916775 -0.03309122 -0.06862427
v 0.5916774 -0.07889347 -0.06862427
v 0.5916775 -0.03309122 -0.458553
v 0.5997317 -0.07889348 -0.4607108
v 0.5916774 -0.07889347 -0.458553
v 0.5997317 -0.03309124 -0.4607108
v 0.6056268 -0.07889349 -0.4666058
v 0.6056268 -0.03309124 -0.4666058
v 0.607783 -0.07889349 -0.4747086
v 0.6077831 -0.03309125 -0.4747086
v 0.6056268 -0.07889349 -0.4827502
v 0.607783 -0.09495459 -0.4747086
v 0.6056268 -0.03309124 -0.4827502
v 0.6056268 -0.09495459 -0.4827502
v 0.5997317 -0.07889348 -0.4886453
v 0.5997317 -0.03309124 -0.4886453
v 0.5997317 -0.09495459 -0.4886453
v 0.5916774 -0.07889347 -0.4908029
v 0.5916775 -0.03309122 -0.4908029
v 0.5916774 -0.09495457 -0.4908029
v 0.5836262 -0.07889346 -0.4886453
v 0.5836262 -0.03309121 -0.4886453
v 0.5836261 -0.09495457 -0.4886453
v 0.577731 -0.07889345 -0.4827502
v 0.5777311 -0.03309121 -0.4827502
v 0.577731 -0.09495456 -0.4827502
v 0.5755718 -0.07889345 -0.4747086
v 0.5755718 -0.09495455 -0.4747086
v 0.5755719 -0.0330912 -0.4747086
v 0.577731 -0.07889345 -0.4666058
v 0.5777311 -0.03309121 -0.4666058
v 0.5836261 -0.07889346 -0.4607108
v 0.5836262 -0.03309121 -0.4607108
v 0.5916774 -0.07889347 -0.458553
v 0.5916775 -0.03309122 -0.458553
v 0.607783 -0.09495459 -0.05256869
v 0.607783 -0.07889349 -0.05256869
v 0.607783 -0.07889349 -0.4747086
v 0.607783 -0.09495459 -0.4747086
v 0.607783 -0.07889349 -0.05256869
v 0.6056268 -0.07889349 -0.4666058
v 0.607783 -0.07889349 -0.4747086
v 0.6056268 -0.07889349 -0.06057144
v 0.5997317 -0.07889348 -0.4607108
v 0.5997317 -0.07889348 -0.06646649
v 0.5916774 -0.07889347 -0.458553
v 0.5916774 -0.07889347 -0.06862427
v 0.5836261 -0.07889346 -0.4607108
v 0.5836261 -0.07889346 -0.06646648
v 0.577731 -0.07889345 -0.4666058
v 0.577731 -0.07889345 -0.06057143
v 0.5755718 -0.07889345 -0.4747086
v 0.5755718 -0.07889345 -0.05256867
v 0.5755718 -0.07889345 -0.05256867
v 0.5755718 -0.09495455 -0.05256867
v 0.5755718 -0.09495455 -0.4747086
v 0.5755718 -0.07889345 -0.4747086
v 0.6056268 -0.09495459 -0.04450477
v 0.607783 -0.09495459 -0.05256869
v 0.5916774 -0.09495457 -0.05256868
v 0.5997317 -0.09495459 -0.03860975
v 0.5916774 -0.09495457 -0.036452
v 0.5836261 -0.09495457 -0.03860975
v 0.577731 -0.09495456 -0.04450476
v 0.607783 -0.09495459 -0.4747086
v 0.5916774 -0.09495457 -0.4747086
v 0.6056268 -0.09495459 -0.4827502
v 0.5755718 -0.09495455 -0.05256867
v 0.5997317 -0.09495459 -0.4886453
v 0.5755718 -0.09495455 -0.4747086
v 0.5916774 -0.09495457 -0.4908029
v 0.577731 -0.09495456 -0.4827502
v 0.5836261 -0.09495457 -0.4886453
vt 0.3050602 0.9965611
vt 0.3123135 0.9965611
vt 0.3123135 0.9942082
vt 0.3050602 0.9942082
vt 0.2976347 0.9965611
vt 0.2976347 0.9942082
vt 0.2902394 0.9965611
vt 0.2902394 0.9942082
vt 0.0294401 0.9965612
vt 0.0294401 0.9942083
vt 0.02204484 0.9942083
vt 0.02204484 0.9965612
vt 0.01461929 0.9942083
vt 0.01461929 0.9965612
vt 0.007366002 0.9942083
vt 0.007366002 0.9965612
vt 0.3123135 0.9942082
vt 0.3123135 0.608671
vt 0.3050602 0.608671
vt 0.3050602 0.9942082
vt 0.2976347 0.608671
vt 0.2976347 0.9942082
vt 0.2902394 0.608671
vt 0.2902394 0.9942082
vt 0.0294401 0.608671
vt 0.0294401 0.9942083
vt 0.02204484 0.9942083
vt 0.02204484 0.608671
vt 0.01461929 0.9942083
vt 0.01461929 0.608671
vt 0.007366002 0.9942083
vt 0.007366002 0.608671
vt 0.4904065 0.1756526
vt 0.4904065 0.4544108
vt 0.4973969 0.4544108
vt 0.4973969 0.1756526
vt 0.4842053 0.1779116
vt 0.4904065 0.4544108
vt 0.4904065 0.1756526
vt 0.4842053 0.4521518
vt 0.4821149 0.1840229
vt 0.4821149 0.4460405
vt 0.5027901 0.1832438
vt 0.5048805 0.4513727
vt 0.5027901 0.4452614
vt 0.5048805 0.1771324
vt 0.5110817 0.4536283
vt 0.5110817 0.1748769
vt 0.5180721 0.1748734
vt 0.5180721 0.4536318
vt 0.7106789 0.1066218
vt 0.7106789 0.1031339
vt 0.7298369 0.1031339
vt 0.7298369 0.1066218
vt 0.7106789 0.1101117
vt 0.7298369 0.1101117
vt 0.7106789 0.1136066
vt 0.7298369 0.1136066
vt 0.7106789 0.1170973
vt 0.7298369 0.1170973
vt 0.7106789 0.1205886
vt 0.7365534 0.1170973
vt 0.7365534 0.1136066
vt 0.7365534 0.1205886
vt 0.7298369 0.1205886
vt 0.7106789 0.1240824
vt 0.7365534 0.1240824
vt 0.7298369 0.1240824
vt 0.7106789 0.1275767
vt 0.7365534 0.1275767
vt 0.7298369 0.1275767
vt 0.7106789 0.1310699
vt 0.7365534 0.1310699
vt 0.7298369 0.1310699
vt 0.7365534 0.1345596
vt 0.7106789 0.1345596
vt 0.7298369 0.1345596
vt 0.7106789 0.1380544
vt 0.7298369 0.1380544
vt 0.7106789 0.1415442
vt 0.7298369 0.1415442
vt 0.7106789 0.1450317
vt 0.7298369 0.1450317
vt 0.7106789 0.05645865
vt 0.7298369 0.05994606
vt 0.7298369 0.05645865
vt 0.7106789 0.05994606
vt 0.7298369 0.06343591
vt 0.7106789 0.06343591
vt 0.7298369 0.06693065
vt 0.7106789 0.06693065
vt 0.7298369 0.07042044
vt 0.7365534 0.06693065
vt 0.7106789 0.07042044
vt 0.7365534 0.07042044
vt 0.7298369 0.07391363
vt 0.7106789 0.07391363
vt 0.7365534 0.07391363
vt 0.7298369 0.07740796
vt 0.7106789 0.07740796
vt 0.7365534 0.07740796
vt 0.7298369 0.0809018
vt 0.7106789 0.0809018
vt 0.7365534 0.0809018
vt 0.7298369 0.08439308
vt 0.7106789 0.08439308
vt 0.7365534 0.08439308
vt 0.7298369 0.08788377
vt 0.7365534 0.08788377
vt 0.7106789 0.08788377
vt 0.7298369 0.09137869
vt 0.7106789 0.09137869
vt 0.7298369 0.0948686
vt 0.7106789 0.0948686
vt 0.7298369 0.09835643
vt 0.7106789 0.09835643
vt 0.4858124 0.1565744
vt 0.4792193 0.1565741
vt 0.4792193 0.07154059
vt 0.4858124 0.07154059
vt 0.5193475 0.1565847
vt 0.5184619 0.07488239
vt 0.5193474 0.07154059
vt 0.518462 0.1532856
vt 0.516042 0.07729757
vt 0.5160421 0.150871
vt 0.5126113 0.07833397
vt 0.5126113 0.1498757
vt 0.5091816 0.07729757
vt 0.5091817 0.150871
vt 0.5067623 0.07488239
vt 0.5067623 0.1532856
vt 0.5058767 0.07154059
vt 0.5058767 0.1565847
vt 0.5058767 0.1565847
vt 0.4990343 0.1565968
vt 0.4990343 0.07154059
vt 0.5058767 0.07154059
vt 0.4866198 0.1598746
vt 0.4858124 0.1565744
vt 0.4924228 0.1565847
vt 0.4890542 0.1622909
vt 0.4924228 0.1631726
vt 0.4957918 0.1622909
vt 0.4982252 0.1598746
vt 0.4858124 0.07154059
vt 0.4924228 0.07154059
vt 0.4866198 0.06821692
vt 0.4990343 0.1565968
vt 0.4890542 0.06579983
vt 0.4990343 0.07154059
vt 0.4924228 0.06491768
vt 0.4982252 0.06821692
vt 0.4957918 0.06579983
vn 0.7005348 -0.1230936 0.7029216
vn 0.7073444 -0.0001267746 0.7068691
vn 0.7073444 -0.0001267746 0.7068691
vn 0.7020863 -0.1064792 0.7040859
vn 0.4814296 -0.5039802 0.717098
vn 0.4984443 -0.4857504 0.7180528
vn 0.118039 -0.7347938 0.6679407
vn 0.1201268 -0.7344354 0.6679628
vn -0.118039 -0.7347976 0.6679365
vn -0.1201272 -0.7344391 0.6679586
vn -0.4984469 -0.4857517 0.7180502
vn -0.4814285 -0.5039857 0.7170948
vn -0.7020845 -0.106479 0.7040878
vn -0.700533 -0.1230933 0.7029234
vn -0.7073424 -0.000127391 0.7068711
vn -0.7073424 -0.000127391 0.7068712
vn 1 0 0
vn 1 0 0
vn 0.9871896 -0.1595516 0
vn 0.9871926 -0.1595326 0
vn 0.7075541 -0.7066591 0
vn 0.7075812 -0.7066321 0
vn 0.1601797 -0.9870878 0
vn 0.1601828 -0.9870874 0
vn -0.1601798 -0.9870878 0
vn -0.1601828 -0.9870874 0
vn -0.7075813 -0.706632 0
vn -0.7075542 -0.7066591 0
vn -0.9871926 -0.1595326 0
vn -0.9871896 -0.1595516 0
vn -1 0 0
vn -1 0 0
vn 0 -0.0001758648 1
vn 0 -0.0001758648 1
vn 0 -0.0001732517 1
vn 0 -0.0001732517 1
vn 0 -0.0001789622 1
vn 0 -0.0001758648 1
vn 0 -0.0001758648 1
vn 0 -0.0001789622 1
vn 0 -0.0001778147 1
vn 0 -0.0001778147 1
vn 0 0 -1
vn 0 0 -1
vn 0 0 -1
vn 0 0 -1
vn 0 0 -1
vn 0 0 -1
vn 0 0 -1
vn 0 0 -1
vn 0.4999807 0 -0.8660366
vn -4.631158E-05 0 -1
vn -4.629193E-05 0 -1
vn 0.4999808 0 -0.8660365
vn 0.8656769 0 -0.5006032
vn 0.8656769 0 -0.5006033
vn 0.9999995 0 -0.0009526378
vn 0.997842 0 0.06566153
vn 0.8661528 0 0.4997795
vn 0.8661528 0 0.4997793
vn 0.4999785 0 0.8660378
vn 0.866153 0 0.4997789
vn 0.9914784 0 0.1302709
vn 0.499979 0 0.8660376
vn 0.4999785 0 0.8660378
vn -4.579982E-05 0 1
vn -4.609443E-05 0 1
vn -4.585874E-05 0 1
vn -0.5000166 0 0.8660159
vn -0.5000167 0 0.8660158
vn -0.5000166 0 0.8660159
vn -0.866068 0 0.4999263
vn -0.866068 0 0.4999264
vn -0.866068 0 0.4999264
vn -0.9914566 0 0.1304372
vn -0.9999995 0 -0.0009540888
vn -0.9978363 0 0.06574787
vn -0.8655916 0 -0.5007506
vn -0.8655916 0 -0.5007506
vn -0.50002 0 -0.866014
vn -0.5000199 0 -0.866014
vn -4.631158E-05 0 -1
vn -4.629193E-05 0 -1
vn -4.536764E-05 0 1
vn 0.4999786 0 0.8660378
vn -4.534799E-05 0 1
vn 0.4999785 0 0.8660378
vn 0.8664519 0 0.4992606
vn 0.8664519 0 0.4992606
vn 0.9977692 0 -0.06675719
vn 0.9999996 0 -0.0009424923
vn 0.8659804 0 -0.500078
vn 0.9914334 0 -0.1306133
vn 0.8659804 0 -0.500078
vn 0.8659804 0 -0.500078
vn 0.4999756 0 -0.8660396
vn 0.4999755 0 -0.8660396
vn 0.4999755 0 -0.8660396
vn -4.689089E-05 0 -1
vn -4.663555E-05 0 -1
vn -4.650786E-05 0 -1
vn -0.5000141 0 -0.8660173
vn -0.5000142 0 -0.8660172
vn -0.5000143 0 -0.8660171
vn -0.8658952 0 -0.5002254
vn -0.8658951 0 -0.5002257
vn -0.8658953 0 -0.5002253
vn -0.9977634 0 -0.06684547
vn -0.9914114 0 -0.13078
vn -0.9999996 0 -0.0009448243
vn -0.8663682 0 0.4994058
vn -0.8663682 0 0.4994058
vn -0.5000166 0 0.8660159
vn -0.5000166 0 0.8660159
vn -4.534799E-05 0 1
vn -4.536764E-05 0 1
vn 0.9914784 0 0.1302709
vn 0.997842 0 0.06566153
vn 0.9977692 0 -0.06675719
vn 0.9914334 0 -0.1306133
vn 0 1 0
vn 0 1 0
vn 0 1 0
vn 0 1 0
vn 0 1 0
vn 0 1 0
vn 0 1 0
vn 0 1 0
vn 0 1 0
vn 0 1 0
vn 0 1 0
vn 0 1 0
vn 0 1 0
vn 0 1 0
vn -0.9978363 0 0.06574787
vn -0.9914566 0 0.1304372
vn -0.9914114 0 -0.13078
vn -0.9977634 0 -0.06684547
vn 0 -1 0
vn 0 -1 0
vn 0 -1 0
vn 0 -1 0
vn 0 -1 0
vn 0 -1 0
vn 0 -1 0
vn 0 -1 0
vn 0 -1 0
vn 0 -1 0
vn 0 -1 0
vn 0 -1 0
vn 0 -1 0
vn 0 -1 0
vn 0 -1 0
vn 0 -1 0
g Kitchen_FridgeDoor_0
f 3/3/3 2/2/2 1/1/1
f 4/4/4 3/3/3 1/1/1
f 1/1/1 5/5/5 4/4/4
f 5/5/5 6/6/6 4/4/4
f 5/5/5 7/7/7 6/6/6
f 7/7/7 8/8/8 6/6/6
f 7/7/7 9/9/9 8/8/8
f 9/9/9 10/10/10 8/8/8
f 10/10/10 9/9/9 11/11/11
f 9/9/9 12/12/12 11/11/11
f 11/11/11 12/12/12 13/13/13
f 12/12/12 14/14/14 13/13/13
f 15/15/15 13/13/13 14/14/14
f 16/16/16 15/15/15 14/14/14
f 19/19/19 18/18/18 17/17/17
f 20/20/20 19/19/19 17/17/17
f 21/21/21 19/19/19 20/20/20
f 22/22/22 21/21/21 20/20/20
f 23/23/23 21/21/21 22/22/22
f 24/24/24 23/23/23 22/22/22
f 25/25/25 23/23/23 24/24/24
f 26/26/26 25/25/25 24/24/24
f 25/25/25 26/26/26 27/27/27
f 28/28/28 25/25/25 27/27/27
f 28/28/28 27/27/27 29/29/29
f 30/30/30 28/28/28 29/29/29
f 30/30/30 29/29/29 31/31/31
f 32/32/32 30/30/30 31/31/31
f 35/35/35 34/34/34 33/33/33
f 36/36/36 35/35/35 33/33/33
f 39/39/39 38/38/38 37/37/37
f 38/38/38 40/40/40 37/37/37
f 37/37/37 40/40/40 41/41/41
f 40/40/40 42/42/42 41/41/41
f 45/45/45 44/44/44 43/43/43
f 44/44/44 46/46/46 43/43/43
f 44/44/44 47/47/47 46/46/46
f 47/47/47 48/48/48 46/46/46
f 49/49/49 48/48/48 47/47/47
f 50/50/50 49/49/49 47/47/47
f 53/53/53 52/52/52 51/51/51
f 54/54/54 53/53/53 51/51/51
f 54/54/54 51/51/51 55/55/55
f 56/56/56 54/54/54 55/55/55
f 56/56/56 55/55/55 57/57/57
f 58/58/58 56/56/56 57/57/57
f 58/58/58 57/57/57 59/59/59
f 60/60/60 58/58/58 59/59/59
f 60/60/60 59/59/59 61/61/61
f 60/60/60 62/62/62 58/58/58
f 62/62/62 63/63/63 58/58/58
f 64/64/64 62/62/62 60/60/60
f 65/65/65 60/60/60 61/61/61
f 65/65/65 64/64/64 60/60/60
f 65/65/65 61/61/61 66/66/66
f 67/67/67 64/64/64 65/65/65
f 68/68/68 65/65/65 66/66/66
f 68/68/68 67/67/67 65/65/65
f 68/68/68 66/66/66 69/69/69
f 70/70/70 67/67/67 68/68/68
f 71/71/71 68/68/68 69/69/69
f 71/71/71 70/70/70 68/68/68
f 71/71/71 69/69/69 72/72/72
f 73/73/73 70/70/70 71/71/71
f 74/74/74 71/71/71 72/72/72
f 74/74/74 73/73/73 71/71/71
f 75/75/75 73/73/73 74/74/74
f 74/74/74 72/72/72 76/76/76
f 77/77/77 75/75/75 74/74/74
f 77/77/77 74/74/74 76/76/76
f 77/77/77 76/76/76 78/78/78
f 79/79/79 77/77/77 78/78/78
f 79/79/79 78/78/78 80/80/80
f 81/81/81 79/79/79 80/80/80
f 81/81/81 80/80/80 82/82/82
f 83/83/83 81/81/81 82/82/82
f 86/86/86 85/85/85 84/84/84
f 85/85/85 87/87/87 84/84/84
f 85/85/85 88/88/88 87/87/87
f 88/88/88 89/89/89 87/87/87
f 88/88/88 90/90/90 89/89/89
f 90/90/90 91/91/91 89/89/89
f 90/90/90 92/92/92 91/91/91
f 90/90/90 93/93/93 92/92/92
f 92/92/92 94/94/94 91/91/91
f 93/93/93 95/95/95 92/92/92
f 92/92/92 96/96/96 94/94/94
f 92/92/92 95/95/95 96/96/96
f 96/96/96 97/97/97 94/94/94
f 95/95/95 98/98/98 96/96/96
f 96/96/96 99/99/99 97/97/97
f 96/96/96 98/98/98 99/99/99
f 99/99/99 100/100/100 97/97/97
f 98/98/98 101/101/101 99/99/99
f 99/99/99 102/102/102 100/100/100
f 99/99/99 101/101/101 102/102/102
f 102/102/102 103/103/103 100/100/100
f 101/101/101 104/104/104 102/102/102
f 102/102/102 105/105/105 103/103/103
f 102/102/102 104/104/104 105/105/105
f 105/105/105 106/106/106 103/103/103
f 104/104/104 107/107/107 105/105/105
f 105/105/105 108/108/108 106/106/106
f 105/105/105 107/107/107 108/108/108
f 107/107/107 109/109/109 108/108/108
f 108/108/108 110/110/110 106/106/106
f 108/108/108 111/111/111 110/110/110
f 111/111/111 112/112/112 110/110/110
f 111/111/111 113/113/113 112/112/112
f 113/113/113 114/114/114 112/112/112
f 113/113/113 115/115/115 114/114/114
f 115/115/115 116/116/116 114/114/114
f 119/119/119 118/118/118 117/117/117
f 120/120/120 119/119/119 117/117/117
f 123/123/123 122/122/122 121/121/121
f 122/122/122 124/124/124 121/121/121
f 122/122/122 125/125/125 124/124/124
f 125/125/125 126/126/126 124/124/124
f 125/125/125 127/127/127 126/126/126
f 127/127/127 128/128/128 126/126/126
f 127/127/127 129/129/129 128/128/128
f 129/129/129 130/130/130 128/128/128
f 129/129/129 131/131/131 130/130/130
f 131/131/131 132/132/132 130/130/130
f 131/131/131 133/133/133 132/132/132
f 133/133/133 134/134/134 132/132/132
f 137/137/137 136/136/136 135/135/135
f 138/138/138 137/137/137 135/135/135
f 141/141/141 140/140/140 139/139/139
f 141/141/141 139/139/139 142/142/142
f 141/141/141 142/142/142 143/143/143
f 141/141/141 143/143/143 144/144/144
f 141/141/141 144/144/144 145/145/145
f 146/146/146 140/140/140 141/141/141
f 147/147/147 146/146/146 141/141/141
f 147/147/147 148/148/148 146/146/146
f 141/141/141 145/145/145 149/149/149
f 147/147/147 141/141/141 149/149/149
f 147/147/147 150/150/150 148/148/148
f 151/151/151 147/147/147 149/149/149
f 147/147/147 152/152/152 150/150/150
f 147/147/147 151/151/151 153/153/153
f 147/147/147 154/154/154 152/152/152
f 147/147/147 153/153/153 154/154/154
