g Kitchen_MicrowaveDoor
v -0.1915607 0.2718725 0.02835275
v -0.1919792 0.2911441 0.02010301
v -0.1919792 0.2718725 0.02010302
v -0.1915607 0.2911441 0.02835275
v -0.187803 0.2911442 0.03741442
v -0.187803 0.2718725 0.03741443
v -0.1786732 0.2911441 0.04527348
v -0.1786732 0.2718726 0.04527348
v -0.1634374 0.2718726 0.04933118
v -0.1634374 0.2911441 0.04933118
v -0.1427297 0.2911442 0.05000511
v -0.1427297 0.2718726 0.05000512
v 0.1179152 0.2718726 0.05000497
v 0.1179152 0.2911441 0.05000497
v 0.1386229 0.2911441 0.04933123
v 0.1386229 0.2718726 0.04933124
v 0.1538589 0.2718726 0.04527362
v 0.1538589 0.2911441 0.04527362
v 0.1629887 0.2718724 0.03741453
v 0.1629887 0.2911441 0.03741452
v 0.1667463 0.2718724 0.02835284
v 0.1667463 0.2911441 0.02835284
v 0.1671647 0.2718724 0.02010302
v 0.1671647 0.291144 0.02010302
v -0.1915607 0.2911441 0.02835275
v -0.1987132 0.2908482 0.02010282
v -0.1919792 0.2911441 0.02010301
v -0.1982553 0.2908482 0.02855081
v -0.1987132 0.2721684 0.02010282
v -0.1940593 0.2908482 0.03924604
v -0.187803 0.2911442 0.03741442
v -0.1982553 0.2721684 0.02855081
v -0.1919792 0.2718725 0.02010302
v -0.1915607 0.2718725 0.02835275
v -0.187803 0.2718725 0.03741443
v -0.1940593 0.2721684 0.03924604
v -0.1786732 0.2718726 0.04527348
v -0.1830459 0.2721685 0.04987203
v -0.1634374 0.2718726 0.04933118
v -0.1830459 0.2908482 0.04987203
v -0.1786732 0.2911441 0.04527348
v -0.165044 0.2908482 0.05564248
v -0.1634374 0.2911441 0.04933118
v -0.165044 0.2721685 0.05564241
v -0.1427297 0.2718726 0.05000512
v -0.1433403 0.2908482 0.05666007
v -0.1427297 0.2911442 0.05000511
v 0.1179152 0.2911441 0.05000497
v -0.1433403 0.2721685 0.05666007
v 0.118526 0.2908482 0.0566601
v 0.1386229 0.2911441 0.04933123
v 0.118526 0.2721685 0.0566601
v 0.1179152 0.2718726 0.05000497
v 0.1402296 0.2721685 0.05564241
v 0.1386229 0.2718726 0.04933124
v 0.1402296 0.2908482 0.05564267
v 0.1538589 0.2911441 0.04527362
v 0.1582315 0.2908482 0.04987222
v 0.1629887 0.2911441 0.03741452
v 0.1582315 0.2721685 0.04987222
v 0.1538589 0.2718726 0.04527362
v 0.1692449 0.2908482 0.03924616
v 0.1667463 0.2911441 0.02835284
v 0.1692449 0.2721684 0.03924616
v 0.1629887 0.2718724 0.03741453
v 0.1734409 0.2908481 0.02855091
v 0.1671647 0.291144 0.02010302
v 0.1738988 0.2908481 0.02010288
v 0.1734409 0.2721684 0.02855091
v 0.1667463 0.2718724 0.02835284
v 0.1738988 0.2721684 0.02010288
v 0.1671647 0.2718724 0.02010302
v -0.2239777 -8.946132E-08 0.02617305
v 0.1987647 -1.561419E-07 1.182399E-07
v -0.2239756 -1.519218E-07 1.351712E-07
v 0.1987621 -9.368129E-08 0.02617304
v 0.1987621 0.3101282 0.02617281
v 0.1987647 0.3101282 -1.10889E-07
v 0.1987647 -1.561419E-07 1.182399E-07
v -0.2239777 0.3101283 0.02617282
v -0.2239756 -1.519218E-07 1.351712E-07
v -0.2239756 0.3101283 -9.395764E-08
v -0.2239756 0.3101283 -9.395764E-08
v 0.1987647 0.3101282 -1.10889E-07
v -0.2239756 0.3101283 -9.395764E-08
v 0.1987647 -1.561419E-07 1.182399E-07
v 0.1987647 0.3101282 -1.10889E-07
v -0.2239756 -1.519218E-07 1.351712E-07
vt 0.4302852 0.4751705
vt 0.4210531 0.454221
vt 0.4210531 0.4751705
vt 0.4302852 0.454221
vt 0.4423141 0.454221
vt 0.4423141 0.4751705
vt 0.457766 0.454221
vt 0.457766 0.4751705
vt 0.4776324 0.4751705
vt 0.4776324 0.454221
vt 0.5007355 0.454221
vt 0.5007355 0.4751705
vt 0.7880734 0.4751705
vt 0.7880734 0.454221
vt 0.811184 0.454221
vt 0.811184 0.4751705
vt 0.8303819 0.4751705
vt 0.8303819 0.454221
vt 0.8454905 0.4751705
vt 0.8454905 0.454221
vt 0.857372 0.4751705
vt 0.857372 0.454221
vt 0.866604 0.4751705
vt 0.866604 0.454221
vt 0.4302852 0.5158404
vt 0.4210531 0.5085227
vt 0.4210531 0.5158404
vt 0.4302852 0.5085227
vt 0.4210531 0.4877283
vt 0.4423141 0.5085227
vt 0.4423141 0.5158404
vt 0.4302852 0.4877283
vt 0.4210531 0.4805573
vt 0.4302852 0.4805573
vt 0.4423141 0.4805573
vt 0.4423141 0.4877283
vt 0.457766 0.4805573
vt 0.457766 0.4877283
vt 0.4776324 0.4805573
vt 0.457766 0.5085227
vt 0.457766 0.5158404
vt 0.4776324 0.5085227
vt 0.4776324 0.5158404
vt 0.4776324 0.4877283
vt 0.5007355 0.4805573
vt 0.5007355 0.5085227
vt 0.5007355 0.5158404
vt 0.7880734 0.5158404
vt 0.5007355 0.4877283
vt 0.7880734 0.5085227
vt 0.811184 0.5158404
vt 0.7880734 0.4877283
vt 0.7880734 0.4805573
vt 0.811184 0.4877283
vt 0.811184 0.4805573
vt 0.811184 0.5085227
vt 0.8303819 0.5158404
vt 0.8303819 0.5085227
vt 0.8454905 0.5158404
vt 0.8303819 0.4877283
vt 0.8303819 0.4805573
vt 0.8454905 0.5085227
vt 0.857372 0.5158404
vt 0.8454905 0.4877283
vt 0.8454905 0.4805573
vt 0.857372 0.5085227
vt 0.866604 0.5158404
vt 0.866604 0.5085227
vt 0.857372 0.4877283
vt 0.857372 0.4805573
vt 0.866604 0.4877283
vt 0.866604 0.4805573
vt 0.03301361 0.04119547
vt 0.5150687 0.01129786
vt 0.03301361 0.01129786
vt 0.5150687 0.04119547
vt 0.5150687 0.3950211
vt 0.5449781 0.3950211
vt 0.5449781 0.04119547
vt 0.03301361 0.3950211
vt 0.003100896 0.04119547
vt 0.003100896 0.3950211
vt 0.03301361 0.4249179
vt 0.5150687 0.4249179
vt 0.03301361 0.3950211
vt 0.5150687 0.04119547
vt 0.5150687 0.3950211
vt 0.03301361 0.04119547
vn 0.6294995 -0.7640744 -0.1411409
vn 0.6784419 0.7338474 -0.03441579
vn 0.678412 -0.7338783 -0.03434978
vn 0.6295971 0.7639369 -0.1414492
vn 0.5067983 0.7807387 -0.3655168
vn 0.5068739 -0.7813358 -0.3641334
vn 0.2934111 0.7786946 -0.554567
vn 0.2934301 -0.7792782 -0.5537366
vn 0.09603081 -0.7502822 -0.6541061
vn 0.09654095 0.7500015 -0.6543528
vn 0.01120448 0.7263801 -0.687202
vn 0.01102296 -0.7264388 -0.6871428
vn -0.0110196 -0.7264336 -0.6871483
vn -0.0112018 0.7263769 -0.6872053
vn -0.09653445 0.7500015 -0.6543538
vn -0.09602562 -0.7502824 -0.6541065
vn -0.2934279 -0.7792795 -0.553736
vn -0.293408 0.7786962 -0.5545664
vn -0.5068743 -0.7813382 -0.3641279
vn -0.5067998 0.78074 -0.3655121
vn -0.6295193 -0.7640652 -0.1411016
vn -0.629576 0.76395 -0.1414723
vn -0.6784481 -0.7338423 -0.03440655
vn -0.6784179 0.7338731 -0.03434174
vn 0.6295971 0.7639369 -0.1414492
vn -0.7329331 0.6791432 0.03966912
vn 0.6784419 0.7338474 -0.03441579
vn -0.7360862 0.65783 0.1594892
vn -0.7329053 -0.6791698 0.03972632
vn -0.6350807 0.6464181 0.4228666
vn 0.5067983 0.7807387 -0.3655168
vn -0.735992 -0.6579127 0.159583
vn 0.678412 -0.7338783 -0.03434978
vn 0.6294995 -0.7640744 -0.1411409
vn 0.5068739 -0.7813358 -0.3641334
vn -0.634723 -0.64673 0.4229267
vn 0.2934301 -0.7792782 -0.5537366
vn -0.392901 -0.6439933 0.6564309
vn 0.09603081 -0.7502822 -0.6541061
vn -0.3930296 0.6434242 0.6569117
vn 0.2934111 0.7786946 -0.554567
vn -0.1325743 0.6628943 0.7368822
vn 0.09654095 0.7500015 -0.6543528
vn -0.1329096 -0.6632392 0.7365112
vn 0.01102296 -0.7264388 -0.6871428
vn -0.01689064 0.6860632 0.7273459
vn 0.01120448 0.7263801 -0.687202
vn -0.0112018 0.7263769 -0.6872053
vn -0.01707023 -0.6861423 0.7272671
vn 0.01689026 0.6860639 0.7273452
vn -0.09653445 0.7500015 -0.6543538
vn 0.01707201 -0.6861464 0.7272631
vn -0.0110196 -0.7264336 -0.6871483
vn 0.1329068 -0.6632416 0.7365096
vn -0.09602562 -0.7502824 -0.6541065
vn 0.1325732 0.6628892 0.7368869
vn -0.293408 0.7786962 -0.5545664
vn 0.3930284 0.6434226 0.6569139
vn -0.5067998 0.78074 -0.3655121
vn 0.3928976 -0.6439927 0.6564335
vn -0.2934279 -0.7792795 -0.553736
vn 0.6350828 0.6464164 0.4228659
vn -0.629576 0.76395 -0.1414723
vn 0.6347253 -0.6467283 0.4229259
vn -0.5068743 -0.7813382 -0.3641279
vn 0.7360786 0.6578469 0.1594545
vn -0.6784179 0.7338731 -0.03434174
vn 0.7329022 0.6791734 0.03972162
vn 0.7360039 -0.6578928 0.1596097
vn -0.6295193 -0.7640652 -0.1411016
vn 0.73293 -0.6791467 0.03966568
vn -0.6784481 -0.7338423 -0.03440655
vn -0.5773764 -0.577345 0.5773295
vn 0.5773815 -0.5773457 -0.5773237
vn -0.5773243 -0.5773555 -0.5773711
vn 0.5773194 -0.5773545 0.577377
vn 0.5773194 0.5773554 0.577376
vn 0.5773815 0.5773447 -0.5773246
vn 0.5773815 -0.5773457 -0.5773237
vn -0.5773762 0.5773462 0.5773283
vn -0.5773243 -0.5773555 -0.5773711
vn -0.5773246 0.577354 -0.5773723
vn -0.5773246 0.577354 -0.5773723
vn 0.5773815 0.5773447 -0.5773246
vn -0.5773246 0.577354 -0.5773723
vn 0.5773815 -0.5773457 -0.5773237
vn 0.5773815 0.5773447 -0.5773246
vn -0.5773243 -0.5773555 -0.5773711
g Kitchen_MicrowaveDoor_0
f 3/3/3 2/2/2 1/1/1
f 4/4/4 1/1/1 2/2/2
f 4/4/4 5/5/5 1/1/1
f 6/6/6 1/1/1 5/5/5
f 5/5/5 7/7/7 6/6/6
f 8/8/8 6/6/6 7/7/7
f 8/8/8 7/7/7 9/9/9
f 10/10/10 9/9/9 7/7/7
f 10/10/10 11/11/11 9/9/9
f 12/12/12 9/9/9 11/11/11
f 12/12/12 11/11/11 13/13/13
f 14/14/14 13/13/13 11/11/11
f 14/14/14 15/15/15 13/13/13
f 16/16/16 13/13/13 15/15/15
f 16/16/16 15/15/15 17/17/17
f 18/18/18 17/17/17 15/15/15
f 17/17/17 18/18/18 19/19/19
f 20/20/20 19/19/19 18/18/18
f 19/19/19 20/20/20 21/21/21
f 22/22/22 21/21/21 20/20/20
f 21/21/21 22/22/22 23/23/23
f 24/24/24 23/23/23 22/22/22
f 27/27/27 26/26/26 25/25/25
f 28/28/28 25/25/25 26/26/26
f 26/26/26 29/29/29 28/28/28
f 28/28/28 30/30/30 25/25/25
f 31/31/31 25/25/25 30/30/30
f 32/32/32 28/28/28 29/29/29
f 29/29/29 33/33/33 32/32/32
f 34/34/34 32/32/32 33/33/33
f 34/34/34 35/35/35 32/32/32
f 32/32/32 36/36/36 28/28/28
f 36/36/36 32/32/32 35/35/35
f 30/30/30 28/28/28 36/36/36
f 35/35/35 37/37/37 36/36/36
f 38/38/38 36/36/36 37/37/37
f 36/36/36 38/38/38 30/30/30
f 37/37/37 39/39/39 38/38/38
f 30/30/30 40/40/40 31/31/31
f 40/40/40 30/30/30 38/38/38
f 41/41/41 31/31/31 40/40/40
f 40/40/40 42/42/42 41/41/41
f 40/40/40 38/38/38 42/42/42
f 43/43/43 41/41/41 42/42/42
f 44/44/44 38/38/38 39/39/39
f 44/44/44 42/42/42 38/38/38
f 39/39/39 45/45/45 44/44/44
f 42/42/42 46/46/46 43/43/43
f 47/47/47 43/43/43 46/46/46
f 47/47/47 46/46/46 48/48/48
f 44/44/44 49/49/49 42/42/42
f 49/49/49 44/44/44 45/45/45
f 46/46/46 42/42/42 49/49/49
f 50/50/50 48/48/48 46/46/46
f 46/46/46 49/49/49 50/50/50
f 48/48/48 50/50/50 51/51/51
f 49/49/49 45/45/45 52/52/52
f 52/52/52 50/50/50 49/49/49
f 53/53/53 52/52/52 45/45/45
f 52/52/52 53/53/53 54/54/54
f 52/52/52 54/54/54 50/50/50
f 55/55/55 54/54/54 53/53/53
f 56/56/56 51/51/51 50/50/50
f 56/56/56 50/50/50 54/54/54
f 51/51/51 56/56/56 57/57/57
f 58/58/58 57/57/57 56/56/56
f 56/56/56 54/54/54 58/58/58
f 57/57/57 58/58/58 59/59/59
f 54/54/54 55/55/55 60/60/60
f 60/60/60 58/58/58 54/54/54
f 61/61/61 60/60/60 55/55/55
f 62/62/62 59/59/59 58/58/58
f 58/58/58 60/60/60 62/62/62
f 59/59/59 62/62/62 63/63/63
f 60/60/60 61/61/61 64/64/64
f 64/64/64 62/62/62 60/60/60
f 65/65/65 64/64/64 61/61/61
f 66/66/66 63/63/63 62/62/62
f 62/62/62 64/64/64 66/66/66
f 63/63/63 66/66/66 67/67/67
f 68/68/68 67/67/67 66/66/66
f 64/64/64 65/65/65 69/69/69
f 69/69/69 66/66/66 64/64/64
f 66/66/66 69/69/69 68/68/68
f 70/70/70 69/69/69 65/65/65
f 71/71/71 68/68/68 69/69/69
f 69/69/69 70/70/70 71/71/71
f 72/72/72 71/71/71 70/70/70
f 75/75/75 74/74/74 73/73/73
f 76/76/76 73/73/73 74/74/74
f 76/76/76 77/77/77 73/73/73
f 77/77/77 76/76/76 78/78/78
f 79/79/79 78/78/78 76/76/76
f 80/80/80 73/73/73 77/77/77
f 73/73/73 80/80/80 81/81/81
f 82/82/82 81/81/81 80/80/80
f 80/80/80 77/77/77 83/83/83
f 84/84/84 83/83/83 77/77/77
f 87/87/87 86/86/86 85/85/85
f 88/88/88 85/85/85 86/86/86
